<?xml version="1.0" encoding="utf-8"?>
<!-- Generator: Adobe Illustrator 27.5.0, SVG Export Plug-In . SVG Version: 6.00 Build 0)  -->
<svg version="1.1" xmlns="http://www.w3.org/2000/svg" xmlns:xlink="http://www.w3.org/1999/xlink" x="0px" y="0px"
	 viewBox="0 0 750 500" style="enable-background:new 0 0 750 500;" xml:space="preserve">
<g id="BACKGROUND">
	<path style="opacity:0.25;fill:#75D3F8;" d="M111.526,229.677c0,22.463,18.21,40.673,40.673,40.673h20.382
		c-11.394,7.207-18.967,19.909-18.967,34.389v0c0,9.239,3.085,17.754,8.275,24.583c-4.238,6.419-6.711,14.106-6.711,22.373v0
		c0,22.463,18.21,40.673,40.673,40.673h26.005c-11.394,7.207-18.966,19.91-18.966,34.389v0c0,22.463,12.825,28.101,40.673,28.101
		h131.404c0,0,140.79,11.857,140.79-28.101v0c0-3.795-0.531-7.465-1.503-10.95h17.147c18.205,0,33.576-11.979,38.764-28.47
		c0.717-0.395,1.417-0.816,2.107-1.252h2.54c22.463,0,39.304-18.21,39.304-40.672v0c0-14.479-7.573-27.182-18.968-34.389h2.656
		c22.463,0,40.673-18.21,40.673-40.673v0c0-0.004,0-0.009,0-0.013s0-0.009,0-0.013v0c0-22.463-18.21-40.673-40.673-40.673H578.72
		c11.395-7.207,18.968-19.909,18.968-34.389v0c0-9.239-3.085-17.754-8.275-24.583c4.237-6.419,6.711-14.106,6.711-22.373v0
		c0-22.463-18.21-40.673-40.673-40.673h-26.005c11.394-7.207,18.966-19.91,18.966-34.389v0c0-22.463-18.21-40.672-40.673-40.672
		H376.335h-24.247h-75.87c-22.463,0-40.673,18.21-40.673,40.672v0c0,3.795,0.531,7.465,1.504,10.95h-17.147
		c-18.205,0-33.576,11.979-38.764,28.47c-0.717,0.395-1.417,0.816-2.107,1.252h-2.54c-22.463,0-39.304,18.21-39.304,40.672v0
		c0,14.48,7.573,27.182,18.968,34.389h-3.957c-22.463,0-40.673,18.21-40.673,40.673v0c0,0.004,0,0.009,0,0.013
		C111.526,229.668,111.526,229.672,111.526,229.677L111.526,229.677z"/>
	<g>
		<g style="opacity:0.2;">
			<path style="fill:#688CCB;" d="M174.209,228.094h-28.34c-1.176,0-2.13-0.954-2.13-2.13v-4.909c0-1.176,0.954-2.13,2.13-2.13
				h28.34c1.176,0,2.13,0.953,2.13,2.13v4.909C176.339,227.14,175.386,228.094,174.209,228.094z"/>
			<path style="fill:#688CCB;" d="M190.509,216.124h-28.34c-1.176,0-2.13-0.954-2.13-2.13v-4.909c0-1.176,0.953-2.13,2.13-2.13
				h28.34c1.176,0,2.13,0.953,2.13,2.13v4.909C192.639,215.17,191.685,216.124,190.509,216.124z"/>
			<path style="fill:#688CCB;" d="M477.877,125.793h-28.34c-1.176,0-2.13-0.953-2.13-2.13v-4.909c0-1.176,0.953-2.13,2.13-2.13
				h28.34c1.176,0,2.13,0.953,2.13,2.13v4.909C480.007,124.839,479.053,125.793,477.877,125.793z"/>
			<path style="fill:#688CCB;" d="M494.176,113.823h-28.34c-1.176,0-2.13-0.953-2.13-2.13v-4.909c0-1.176,0.954-2.13,2.13-2.13
				h28.34c1.176,0,2.13,0.953,2.13,2.13v4.909C496.306,112.869,495.353,113.823,494.176,113.823z"/>
			<path style="fill:#688CCB;" d="M366.169,172.064h28.34c1.176,0,2.13-0.953,2.13-2.13v-4.909c0-1.176-0.953-2.13-2.13-2.13h-28.34
				c-1.176,0-2.13,0.953-2.13,2.13v4.909C364.039,171.11,364.993,172.064,366.169,172.064z"/>
			<path style="fill:#688CCB;" d="M349.869,160.094h28.34c1.176,0,2.13-0.953,2.13-2.13v-4.909c0-1.176-0.953-2.13-2.13-2.13h-28.34
				c-1.176,0-2.13,0.953-2.13,2.13v4.909C347.74,159.14,348.693,160.094,349.869,160.094z"/>
			<path style="fill:#688CCB;" d="M227.692,216.124h-28.34c-1.176,0-2.13-0.954-2.13-2.13v-4.909c0-1.176,0.953-2.13,2.13-2.13
				h28.34c1.176,0,2.13,0.953,2.13,2.13v4.909C229.822,215.17,228.869,216.124,227.692,216.124z"/>
			<path style="fill:#688CCB;" d="M343.063,228.094h-28.34c-1.176,0-2.13-0.954-2.13-2.13v-4.909c0-1.176,0.953-2.13,2.13-2.13
				h28.34c1.176,0,2.13,0.953,2.13,2.13v4.909C345.193,227.14,344.239,228.094,343.063,228.094z"/>
			<path style="fill:#688CCB;" d="M349.37,417.522h-28.34c-1.176,0-2.13-0.953-2.13-2.13v-4.909c0-1.176,0.953-2.13,2.13-2.13h28.34
				c1.176,0,2.13,0.953,2.13,2.13v4.909C351.5,416.569,350.546,417.522,349.37,417.522z"/>
			<path style="fill:#688CCB;" d="M304.214,119.808h-28.34c-1.176,0-2.13-0.953-2.13-2.13v-4.909c0-1.176,0.954-2.13,2.13-2.13
				h28.34c1.176,0,2.13,0.953,2.13,2.13v4.909C306.343,118.854,305.39,119.808,304.214,119.808z"/>
			<path style="fill:#688CCB;" d="M446.643,255.857h-28.34c-1.176,0-2.13-0.953-2.13-2.13v-4.909c0-1.176,0.953-2.13,2.13-2.13
				h28.34c1.176,0,2.13,0.953,2.13,2.13v4.909C448.772,254.904,447.819,255.857,446.643,255.857z"/>
			<path style="fill:#688CCB;" d="M458.34,391.624h-28.34c-1.176,0-2.13-0.954-2.13-2.13v-4.909c0-1.176,0.953-2.13,2.13-2.13h28.34
				c1.176,0,2.13,0.953,2.13,2.13v4.909C460.47,390.671,459.517,391.624,458.34,391.624z"/>
			<path style="fill:#688CCB;" d="M309.167,283.359h-28.34c-1.176,0-2.13-0.953-2.13-2.13v-4.909c0-1.176,0.954-2.13,2.13-2.13
				h28.34c1.176,0,2.13,0.954,2.13,2.13v4.909C311.297,282.406,310.343,283.359,309.167,283.359z"/>
			<path style="fill:#688CCB;" d="M210.119,204.154h-28.34c-1.176,0-2.13-0.954-2.13-2.13v-4.909c0-1.176,0.953-2.13,2.13-2.13
				h28.34c1.176,0,2.13,0.954,2.13,2.13v4.909C212.249,203.2,211.296,204.154,210.119,204.154z"/>
			<path style="fill:#688CCB;" d="M540.194,228.094h28.34c1.176,0,2.13-0.954,2.13-2.13v-4.909c0-1.176-0.953-2.13-2.13-2.13h-28.34
				c-1.176,0-2.13,0.953-2.13,2.13v4.909C538.065,227.14,539.018,228.094,540.194,228.094z"/>
			<path style="fill:#688CCB;" d="M523.895,216.124h28.34c1.176,0,2.13-0.954,2.13-2.13v-4.909c0-1.176-0.953-2.13-2.13-2.13h-28.34
				c-1.176,0-2.13,0.953-2.13,2.13v4.909C521.765,215.17,522.719,216.124,523.895,216.124z"/>
			<path style="fill:#688CCB;" d="M486.711,216.124h28.34c1.176,0,2.13-0.954,2.13-2.13v-4.909c0-1.176-0.953-2.13-2.13-2.13h-28.34
				c-1.176,0-2.13,0.953-2.13,2.13v4.909C484.582,215.17,485.535,216.124,486.711,216.124z"/>
			<path style="fill:#688CCB;" d="M504.284,204.154h28.34c1.176,0,2.13-0.954,2.13-2.13v-4.909c0-1.176-0.953-2.13-2.13-2.13h-28.34
				c-1.176,0-2.13,0.954-2.13,2.13v4.909C502.155,203.2,503.108,204.154,504.284,204.154z"/>
		</g>
	</g>
</g>
<g id="OBJECTS">
	<g>
		<path style="fill:#3A3762;" d="M602.812,204.061c0.133-3.063,1.137-6.01,2.025-8.945c0.888-2.934,1.676-5.983,1.359-9.033
			c-0.496-4.781-3.665-9.153-3.308-13.947c0.138-1.847,0.904-3.758,2.46-4.762c1.849-1.193,4.385-0.802,6.229,0.4
			c2.552,1.663,5.783,6.385,6.316,9.383c0.533,2.998,0.242,6.075-0.052,9.106c-0.768,7.942,1.039,14.063,0.271,22.005
			c-0.062,0.639-0.127,1.29-0.376,1.881c-0.523,1.239-6.134,2.091-7.447,2.382C604.76,213.755,602.601,208.949,602.812,204.061z"/>
		<g>
			<g>
				<g>
					<g>
						<g>
							<path style="fill:#FFD249;" d="M617.916,202.659l15.35,0.784l7.562,2.459c4.089,1.329,7.616,3.971,10.049,7.516
								c2.718,3.962,6.824,10.514,12.672,21.163l24.151-15.472l5.089,2.669c0,0-25.378,23.908-28.477,25.629
								c-2.199,1.221-4.968,0.48-6.284-1.663l-11.844-19.299c-15.001,38.763-8.711,53.438-8.711,53.438h-34.147V228.26
								l-10.582,17.228c-2.052,3.341-5.441,5.638-9.304,6.306l-29.056,5.026l-1.597-4.844c0,0,4.143-1.285,24.932-8.141
								c3.299-1.088,6.071-3.395,7.733-6.445c7.723-14.169,12.538-21.439,15.198-25.027c1.481-1.998,3.456-3.572,5.729-4.581
								L617.916,202.659z"/>
							<g>
								<g>
									<g>
										<g>
											<path style="fill:#FDC6BF;" d="M554.383,256.82l-13.344-3.403c-2.447-0.624-2.619-4.016-0.257-4.908
												c2.562-0.967,6.444-0.745,12.004,3.467L554.383,256.82z"/>
										</g>
									</g>
								</g>
							</g>
							<g>
								<g>
									<g>
										<g>
											<path style="fill:#FDC6BF;" d="M617.925,203.439c0,0-0.459,2.751,5.171,2.751c5.63,0,10.1-2.751,10.1-2.751V185.64
												h-15.271V203.439z"/>
										</g>
									</g>
								</g>
							</g>
							<g>
								<g>
									<g>
										<g>
											<path style="opacity:0.5;fill:#FDC6BF;" d="M617.925,201.032v-11.131h13.833
												C631.757,189.901,629.312,199.919,617.925,201.032z"/>
										</g>
									</g>
								</g>
							</g>
							<g>
								<g>
									<g>
										<g>
											<path style="fill:#FDC6BF;" d="M636.085,168.997v9.465h-2.901v13.094c0,0-9.53,9.096-18.503,4.561
												c-3.93-1.986-6.333-6.396-6.333-11.1v-16.021c0-2.749,0.652-5.327,1.795-7.547c2.342-4.585,6.76-7.678,11.819-7.678h0.51
												C629.988,153.771,636.085,160.59,636.085,168.997z"/>
										</g>
									</g>
								</g>
							</g>
						</g>
					</g>
					<g>
						<path style="fill:#D35783;" d="M552.232,242.153h-13.44c-0.369,0-0.669-0.299-0.669-0.669v-1.938
							c0-0.369,0.299-0.669,0.669-0.669h13.44c0.369,0,0.669,0.299,0.669,0.669v1.938
							C552.901,241.854,552.601,242.153,552.232,242.153z"/>
						<polygon style="fill:#0C3C62;" points="549.632,260.205 541.392,260.205 539.901,242.153 551.123,242.153 						"/>
						<path style="fill:#C24163;" d="M548.639,250.233c0,1.727-1.4,3.127-3.127,3.127s-3.127-1.4-3.127-3.127
							c0-1.727,1.4-3.127,3.127-3.127S548.639,248.507,548.639,250.233z"/>
					</g>
					<g>
						<g>
							<g>
								<g>
									<path style="fill:#FDC6BF;" d="M543.494,247.934L542,247.83c-0.787-0.055-1.571,0.244-2.083,0.845
										c-0.554,0.649-0.911,1.482-1.007,2.32c-0.183,1.587,1.25,2.944,2.832,2.721c1.161-0.164,2.119-0.536,2.906-1.012
										C546.796,251.403,546,248.109,543.494,247.934z"/>
								</g>
							</g>
						</g>
					</g>
				</g>
				<g>
					<g>
						<g>
							<g>
								<path style="fill:#2F3130;" d="M682.089,219.998l-9.773-13.024c-1.432-1.908-1.045-4.616,0.863-6.047l21.967-16.483
									c1.908-1.432,4.616-1.046,6.047,0.863l9.773,13.024c1.432,1.908,1.045,4.616-0.863,6.047l-21.967,16.483
									C686.228,222.292,683.521,221.906,682.089,219.998z"/>
								<path style="fill:#AADFE5;" d="M684.526,219.334l-10.891-14.515c-0.534-0.711-0.39-1.721,0.322-2.255l22.545-16.917
									c0.711-0.534,1.721-0.39,2.255,0.322l10.891,14.515c0.534,0.711,0.39,1.721-0.322,2.255l-22.545,16.917
									C686.069,220.189,685.06,220.045,684.526,219.334z"/>
							</g>
							<path style="fill:#FFFFFF;" d="M678.571,213.266c-0.285,0.214-0.689,0.156-0.903-0.129c-0.214-0.285-0.156-0.689,0.129-0.903
								c0.285-0.214,0.689-0.156,0.903,0.129C678.913,212.648,678.855,213.052,678.571,213.266z"/>
						</g>
						
							<rect x="692.594" y="193.895" transform="matrix(0.6004 0.7997 -0.7997 0.6004 436.442 -482.8242)" style="fill:#5A5A5A;" width="17.573" height="2.876"/>
						
							<rect x="676.806" y="204.963" transform="matrix(0.6004 0.7997 -0.7997 0.6004 439.6105 -465.462)" style="fill:#5A5A5A;" width="17.573" height="4.447"/>
						
							<rect x="682.001" y="202.721" transform="matrix(0.6004 0.7997 -0.7997 0.6004 438.57 -471.1754)" style="fill:#5A5A5A;" width="17.573" height="1.132"/>
						
							<rect x="680.066" y="204.173" transform="matrix(0.6004 0.7997 -0.7997 0.6004 438.9555 -469.047)" style="fill:#5A5A5A;" width="17.573" height="1.132"/>
						
							<rect x="686.948" y="195.237" transform="matrix(0.6004 0.7997 -0.7997 0.6004 437.573 -476.6152)" style="fill:#5A5A5A;" width="17.573" height="8.668"/>
						<g>
							<g>
								
									<rect x="691.788" y="191.668" transform="matrix(0.6005 0.7997 -0.7997 0.6005 431.7338 -477.3504)" style="fill:#D35783;" width="3.541" height="3.398"/>
								
									<rect x="688.613" y="194.051" transform="matrix(0.6004 0.7997 -0.7997 0.6004 432.3979 -473.8701)" style="fill:#A5B2DF;" width="3.541" height="3.398"/>
							</g>
							<g>
								
									<rect x="694.286" y="194.995" transform="matrix(0.6004 0.7997 -0.7997 0.6004 435.4193 -478.0291)" style="fill:#FFCC56;" width="3.541" height="3.398"/>
								
									<rect x="691.112" y="197.378" transform="matrix(0.6005 0.7997 -0.7997 0.6005 436.0303 -474.5284)" style="fill:#3A3762;" width="3.541" height="3.398"/>
							</g>
							<g>
								
									<rect x="696.817" y="198.366" transform="matrix(0.6004 0.7997 -0.7997 0.6004 439.1113 -478.7005)" style="fill:#A5B2DF;" width="3.541" height="3.398"/>
								
									<rect x="693.643" y="200.749" transform="matrix(0.6004 0.7997 -0.7997 0.6004 439.7527 -475.2114)" style="fill:#D35783;" width="3.541" height="3.398"/>
							</g>
							<g>
								
									<rect x="699.316" y="201.693" transform="matrix(0.6004 0.7997 -0.7997 0.6004 442.774 -479.3703)" style="fill:#3A3762;" width="3.541" height="3.398"/>
								
									<rect x="696.141" y="204.077" transform="matrix(0.6005 0.7997 -0.7997 0.6005 443.3963 -475.874)" style="fill:#FFCC56;" width="3.541" height="3.398"/>
							</g>
						</g>
						
							<rect x="683.869" y="214.226" transform="matrix(0.6004 0.7997 -0.7997 0.6004 446.636 -462.0143)" style="fill:#D35783;" width="3.541" height="3.398"/>
						
							<rect x="675.443" y="203.005" transform="matrix(0.6005 0.7997 -0.7997 0.6005 434.2699 -459.7506)" style="fill:#3A3762;" width="3.541" height="3.398"/>
						
							<rect x="678.252" y="206.746" transform="matrix(0.6004 0.7997 -0.7997 0.6004 438.3944 -460.5061)" style="fill:#FFFFFF;" width="3.541" height="3.398"/>
						
							<rect x="681.06" y="210.486" transform="matrix(0.6004 0.7997 -0.7997 0.6004 442.5075 -461.2575)" style="fill:#A5B2DF;" width="3.541" height="3.398"/>
					</g>
					<g style="opacity:0.5;">
						<polygon style="fill:#FFFFFF;" points="708.05,198.356 678.087,210.752 679.534,212.682 709.498,200.285 						"/>
						<polygon style="fill:#FFFFFF;" points="703.748,192.622 673.785,205.018 676.928,209.208 706.892,196.812 						"/>
					</g>
				</g>
				<g>
					<g>
						<g>
							<g>
								<path style="fill:#FDC6BF;" d="M687.314,221.716l9.439-12.796c0.75-1.017,2.342-0.843,2.818,0.328
									c1.128,2.777,1.356,7.741-7.169,12.811L687.314,221.716z"/>
							</g>
						</g>
					</g>
				</g>
			</g>
			<path style="opacity:0.5;fill:#FFD249;" d="M633.319,279.883h4.153c0,0-5.823-13.617,7.138-49.235l-2.58-4.204
				C627.03,265.208,633.319,279.883,633.319,279.883z"/>
			<g>
				<path style="fill:#3A3762;" d="M635.143,227.884c1.717-4.701,4.013-9.626,2.864-14.498c-1.29-5.467-6.47-9.005-9.516-13.725
					c-3.055-4.734-3.867-10.851-2.154-16.219c1.08-3.383,3.128-6.782,2.287-10.232c-0.69-2.83-3.141-4.813-5.296-6.773
					c-2.155-1.96-4.292-4.498-4.011-7.398c0.229-2.36,2.101-4.322,4.281-5.253c2.181-0.93,4.629-0.993,6.996-0.857
					c3.877,0.223,8.183,1.235,10.241,4.528c2.779,4.445-0.011,10.395,1.395,15.446c1.187,4.267,5.084,7.091,8.406,10.019
					c3.909,3.444,7.356,7.531,9.4,12.323c2.044,4.792,2.584,10.348,0.791,15.239c-1.65,4.499-5.107,8.141-6.876,12.595
					c-1.269,3.196-1.614,6.669-2.359,10.025c-1.376,6.194-5.918,13.037-13.31,10.841
					C631.625,241.97,633.382,232.708,635.143,227.884z"/>
				<path style="fill:#3A3762;" d="M610.83,166.841c-0.417,1.132-0.766,2.463-1.847,2.998c-0.907,0.449-2.017,0.141-2.882-0.384
					c-2.522-1.533-3.692-4.793-3.189-7.701c0.503-2.908,1.925-5.447,4.354-7.125c2.429-1.677,4.295-2.89,7.182-3.505
					c2.543-0.542,5.732-0.842,8.262-0.246c2.53,0.596,5.936,2.546,6.847,4.98c0.906,2.423,0.148,5.32-1.852,6.964
					c-1.991,1.636-3.08,1.022-4.814-0.362C618.351,158.838,612.665,161.857,610.83,166.841z"/>
			</g>
			<path style="opacity:0.5;fill:#FDC6BF;" d="M638.283,243.947c-6.658-1.978-4.901-11.24-3.14-16.063
				c1.717-4.701,4.013-9.626,2.864-14.498c-0.863-3.658-3.467-6.452-6.009-9.315c-0.214-0.242-0.427-0.484-0.64-0.727
				c-1.033-1.182-2.031-2.388-2.867-3.684c-0.769-1.192-1.396-2.473-1.876-3.806c-1.171-3.251-1.467-6.82-0.828-10.215
				c0.14-0.742,0.32-1.477,0.55-2.197c1.08-3.383,3.128-6.782,2.287-10.232c-0.69-2.83-3.141-4.813-5.296-6.773
				c-1.67-1.519-3.323-3.385-3.855-5.497c-0.679-0.097-1.356-0.086-2.018,0.024c0.538,2.102,2.186,3.961,3.85,5.474
				c2.155,1.96,4.606,3.943,5.296,6.773c0.841,3.45-1.207,6.849-2.287,10.232c-0.23,0.721-0.411,1.455-0.55,2.197
				c-0.684,3.636-0.291,7.468,1.095,10.899c0.439,1.087,0.972,2.136,1.609,3.122c0.81,1.256,1.773,2.428,2.773,3.576
				c0.429,0.492,0.863,0.98,1.296,1.467c2.354,2.647,4.648,5.294,5.447,8.682c1.149,4.872-1.147,9.796-2.864,14.498
				c-1.761,4.824-3.518,14.085,3.14,16.063c1.35,0.401,2.603,0.498,3.761,0.355C639.459,244.238,638.881,244.125,638.283,243.947z"
				/>
			<g>
				<g id="XMLID_5_">
					<path style="fill:#225485;" d="M622.289,382.114l0.021-0.002c11.318,16.531,18.266,27.485,29.424,42.239
						c3.404,4.48,10.82,1.802,10.207-3.796c-0.004-0.042-0.009-0.085-0.013-0.127c-0.511-4.177-3.079-7.781-5.204-11.452
						c-5.333-9.153-8.203-19.497-12.522-29.181c-4.319-9.684-9.737-20.922-19.298-25.458c-0.258,1.03-0.474,2.056-0.669,3.08
						C622.777,365.533,623.224,373.902,622.289,382.114z"/>
					<path style="fill:#266CA8;" d="M607.095,353.974c-2.519,27.874-5.255,55.727-10.55,84.867l12.07-1.444
						c0.533-18.444,10.952-35.248,13.467-53.532c0.09-0.586,0.159-1.169,0.206-1.751c0.936-8.212,0.488-16.582,1.946-24.697
						c0.195-1.024,0.411-2.05,0.669-3.08c2.012-8.343,5.845-16.209,9.646-23.966c4.263-8.679,6.589-13.103,8.308-22.633
						c1.72-9.531,0.485-20.145-5.385-27.855h-34.147C597.664,303.336,594.727,332.381,607.095,353.974z"/>
				</g>
			</g>
			<path style="opacity:0.5;fill:#266CA8;" d="M607.095,353.974c-2.139-3.734-3.972-8.022-5.282-12.367l10.099-34.818
				C610.181,322.658,608.519,338.365,607.095,353.974z"/>
			<g>
				<path style="fill:#B4BED1;" d="M611.188,443.145c0.021,0.409-0.271,0.773-0.677,0.843l-32.946,5.698
					c-0.41,0.071-0.833-0.199-0.929-0.605c-0.068-0.287-0.131-0.579-0.175-0.87l34.676-5.998l0.005,0
					C611.156,442.524,611.175,442.834,611.188,443.145z"/>
				<path style="fill:#D35783;" d="M611.143,442.213l-0.005,0l-34.676,5.998c-0.087-0.598-0.099-1.204,0.051-1.816
					c0.091-0.368,0.251-0.724,0.483-1.02c1.152-1.469,3.076-0.874,4.73-1.112c1.393-0.204,2.616-1.026,3.765-1.845
					c3.747-2.668,7.355-5.541,10.79-8.599c0.386-0.342,0.973-0.384,1.375-0.056c0.223,0.177,0.42,0.407,0.568,0.637
					c0.124,0.195,0.238,0.399,0.352,0.598l0,0.005c0.181,0.324,0.362,0.638,0.607,0.913c0.568,0.632,1.424,0.945,2.263,1.089
					c2.012,0.336,4.147-0.247,5.747-1.495c0.215-0.168,0.416-0.351,0.612-0.539c0.528-0.521,1.381-0.578,1.922-0.075
					c0.107,0.096,0.203,0.206,0.279,0.316c0.359,0.519,0.499,1.152,0.61,1.775C610.918,438.702,611.05,440.463,611.143,442.213z"/>
			</g>
			<g>
				<path style="fill:#B4BED1;" d="M667.623,423.102c0.243,0.33,0.198,0.795-0.102,1.077l-24.391,22.869
					c-0.304,0.284-0.805,0.292-1.108,0.005c-0.215-0.202-0.428-0.411-0.624-0.631l25.671-24.071l0.004-0.003
					C667.255,422.6,667.441,422.85,667.623,423.102z"/>
				<path style="fill:#D35783;" d="M667.073,422.348l-0.004,0.003l-25.671,24.071c-0.401-0.452-0.744-0.951-0.956-1.545
					c-0.126-0.357-0.188-0.743-0.157-1.117c0.155-1.861,2.089-2.421,3.34-3.529c1.052-0.936,1.621-2.295,2.131-3.611
					c1.664-4.288,3.099-8.671,4.287-13.114c0.135-0.498,0.602-0.856,1.118-0.803c0.284,0.025,0.575,0.109,0.825,0.219
					c0.211,0.094,0.418,0.202,0.623,0.306l0.003,0.004c0.329,0.171,0.652,0.334,1.009,0.429c0.822,0.216,1.709,0.006,2.489-0.334
					c1.866-0.826,3.328-2.486,3.979-4.408c0.087-0.259,0.154-0.522,0.215-0.787c0.154-0.725,0.836-1.242,1.565-1.119
					c0.142,0.021,0.283,0.061,0.407,0.11c0.585,0.237,1.05,0.689,1.485,1.148C664.955,419.539,666.033,420.937,667.073,422.348z"/>
			</g>
			<path style="opacity:0.5;fill:#FFD249;" d="M587.944,246.83c-4.046,3.337-25.164,6.098-34.152,8.197l0.591,1.793l29.056-5.026
				c3.863-0.668,7.252-2.965,9.304-6.306l9.813-15.976C596.599,234.152,593.794,242.006,587.944,246.83z"/>
			<path style="opacity:0.5;fill:#FFD249;" d="M689.125,219.856c-3.972,3.137-7.328,7.046-10.725,10.83
				c-4.122,4.591-8.53,9.147-14.106,11.788c-1.021,0.484-2.178,0.906-3.26,0.581c-0.731-0.219-1.324-0.752-1.845-1.311
				c-2.346-2.518-3.743-5.901-3.855-9.342c-0.095-2.898,0.732-5.81,2.294-8.251c-0.824-1.397-1.596-2.68-2.318-3.857
				c-0.505,0.904-0.975,1.824-1.357,2.786c-1.269,3.196-1.614,6.669-2.359,10.025c-0.111,0.5-0.245,1.003-0.397,1.506l6.832,11.132
				c1.315,2.143,4.085,2.884,6.284,1.663c3.1-1.721,28.477-25.629,28.477-25.629L689.125,219.856z"/>
			<g>
				<g>
					<g>
						<g>
							<g>
								<path style="fill:#FFFFFF;" d="M622.971,187.048c0,0-1.101,5.201-6.088,5.201c-4.988,0-6.089-5.201-6.089-5.201H622.971z"/>
							</g>
						</g>
					</g>
				</g>
				<g>
					<path style="fill:#DB7170;" d="M615.53,181.81c-0.892,0.206-1.985-0.382-2.289-1.384c-0.178-0.479-0.145-1.045,0.022-1.518
						c0.168-0.478,0.436-0.869,0.662-1.246c0.947-1.413,1.285-3.146,1.028-4.934c0.417,0.805,0.598,1.754,0.518,2.688
						c-0.061,0.934-0.406,1.869-0.912,2.647c-0.501,0.753-0.934,1.432-0.757,2.206C613.944,181.023,614.621,181.697,615.53,181.81z"
						/>
				</g>
			</g>
		</g>
		<g>
			<g>
				<g>
					<rect x="649.331" y="387.04" style="fill:#A6AAC7;" width="2.972" height="56.645"/>
				</g>
			</g>
			<g>
				<g>
					<path style="fill:#0F3C65;" d="M687.678,376.319h7.465c3.726,0,6.758-3.031,6.758-6.758v-8.598h-2.972v8.598
						c0,2.088-1.698,3.786-3.786,3.786h-7.465V376.319z"/>
				</g>
				<g>
					<path style="fill:#FFD249;" d="M615.578,379.928h70.479c2.814,0,5.095-2.281,5.095-5.095l0,0c0-2.814-2.281-5.095-5.095-5.095
						h-70.479c-2.814,0-5.095,2.281-5.095,5.095l0,0C610.483,377.647,612.764,379.928,615.578,379.928z"/>
					<path style="fill:#0F3C65;" d="M648.535,390.595h4.564c3.465,0,6.273-2.809,6.273-6.273v-0.838h-17.111v0.838
						C642.262,387.787,645.071,390.595,648.535,390.595z"/>
					<path style="fill:#104E7D;" d="M674.366,383.484h-47.097c-2.18,0-3.996-1.52-4.471-3.556h56.04
						C678.362,381.963,676.546,383.484,674.366,383.484z"/>
				</g>
				<path style="fill:#104E7D;" d="M705.51,358.911v-70.479c0-2.814-2.281-5.095-5.095-5.095l0,0c-2.814,0-5.095,2.281-5.095,5.095
					v70.479c0,2.814,2.281,5.095,5.095,5.095l0,0C703.229,364.006,705.51,361.725,705.51,358.911z"/>
				<path style="fill:#FFD249;" d="M695.32,288.432v70.479c0,0-10.756-4.812-10.756-35.24S695.32,288.432,695.32,288.432z"/>
				<g>
					<path style="fill:#0F3C65;" d="M647.35,443.684h6.935v-36.445c0-0.78-0.632-1.412-1.412-1.412h-4.111
						c-0.78,0-1.412,0.632-1.412,1.412V443.684z"/>
				</g>
				<path style="fill:#A6AAC7;" d="M644.396,443.685h12.843v-0.208c0-1.527-1.238-2.764-2.765-2.764h-7.314
					c-1.527,0-2.765,1.238-2.765,2.764V443.685z"/>
				<path style="fill:#0F3C65;" d="M618.161,449.629h65.314v-3.18c0-1.527-1.238-2.764-2.764-2.764h-59.785
					c-1.527,0-2.764,1.238-2.764,2.764V449.629z"/>
			</g>
		</g>
		<g>
			<g>
				<g>
					<g>
						<rect x="240.038" y="386.992" style="fill:#A6AAC7;" width="2.972" height="56.645"/>
					</g>
				</g>
				<g>
					<g>
						<path style="fill:#FFD249;" d="M276.763,379.88h-70.479c-2.814,0-5.095-2.281-5.095-5.095v0c0-2.814,2.281-5.095,5.095-5.095
							h70.479c2.814,0,5.095,2.281,5.095,5.095v0C281.858,377.599,279.577,379.88,276.763,379.88z"/>
						<path style="fill:#0F3C65;" d="M243.806,390.547h-4.564c-3.465,0-6.273-2.809-6.273-6.273v-0.838h17.111v0.838
							C250.079,387.739,247.27,390.547,243.806,390.547z"/>
						<path style="fill:#104E7D;" d="M217.975,383.436h47.097c2.18,0,3.996-1.52,4.471-3.556h-56.04
							C213.979,381.915,215.795,383.436,217.975,383.436z"/>
					</g>
					<g>
						<path style="fill:#0F3C65;" d="M244.991,443.637h-6.935v-36.445c0-0.78,0.632-1.412,1.412-1.412h4.111
							c0.78,0,1.412,0.632,1.412,1.412V443.637z"/>
					</g>
					<path style="fill:#A6AAC7;" d="M247.945,443.637h-12.843v-0.207c0-1.527,1.238-2.765,2.764-2.765h7.314
						c1.527,0,2.764,1.238,2.764,2.765V443.637z"/>
					<path style="fill:#0F3C65;" d="M274.18,449.581h-65.314v-3.18c0-1.527,1.238-2.764,2.764-2.764h59.785
						c1.527,0,2.764,1.238,2.764,2.764V449.581z"/>
				</g>
			</g>
			<path style="fill:#104E7D;" d="M257.105,280.529h-15.581h-15.581c-13.03,0-23.592,10.563-23.592,23.592v44.842
				c0,6.601,5.351,11.952,11.951,11.952h27.222h27.222c6.601,0,11.952-5.351,11.952-11.952v-44.842
				C280.697,291.092,270.135,280.529,257.105,280.529z M275.744,348.964c0,3.865-3.133,6.998-6.998,6.998h-27.222h-27.222
				c-3.865,0-6.998-3.133-6.998-6.998v-44.842c0-10.294,8.345-18.639,18.639-18.639h15.581h15.581
				c10.294,0,18.639,8.345,18.639,18.639V348.964z"/>
			<rect x="240.038" y="360.915" style="fill:#0F3C65;" width="2.972" height="8.775"/>
			<path style="opacity:0.5;fill:#104E7D;" d="M268.746,355.962h-54.444c-3.865,0-6.998-3.133-6.998-6.998v1.769
				c0,3.865,3.133,6.998,6.998,6.998h54.444c3.865,0,6.998-3.133,6.998-6.998v-1.769
				C275.744,352.829,272.611,355.962,268.746,355.962z"/>
			<path style="fill:#FFD249;" d="M268.68,355.962h-54.313c-3.901,0-7.064-3.163-7.064-7.064v-44.601
				c0-10.391,8.424-18.814,18.814-18.814h30.812c10.391,0,18.814,8.423,18.814,18.814v44.601
				C275.744,352.799,272.581,355.962,268.68,355.962z"/>
			<rect x="240.038" y="360.915" style="opacity:0.5;fill:#0F3C65;" width="2.972" height="3.68"/>
			<path style="opacity:0.5;fill:#104E7D;" d="M213.504,379.88c0.126,0.539,0.351,1.038,0.646,1.486h54.747
				c0.296-0.448,0.521-0.947,0.646-1.486H213.504z"/>
			<path style="opacity:0.5;fill:#0F3C65;" d="M250.079,384.332v-0.897h-17.111v0.897c0,0.464,0.055,0.915,0.151,1.35h16.809
				C250.024,385.247,250.079,384.797,250.079,384.332z"/>
			<rect x="240.038" y="390.547" style="opacity:0.5;fill:#A6AAC7;" width="2.972" height="5.254"/>
			<path style="opacity:0.5;fill:#104E7D;" d="M240.954,406.84h3.988c-0.157-0.609-0.705-1.061-1.363-1.061h-4.111
				c-0.78,0-1.412,0.632-1.412,1.412v33.464h1.486v-32.402C239.542,407.473,240.175,406.84,240.954,406.84z"/>
			<path style="opacity:0.5;fill:#A6AAC7;" d="M239.114,441.62h7.366c0.329,0,0.64,0.067,0.932,0.174
				c-0.498-0.682-1.298-1.129-2.206-1.129h-7.366c-1.512,0-2.739,1.226-2.739,2.739v0.233h1.382
				C236.802,442.477,237.853,441.62,239.114,441.62z"/>
			<path style="opacity:0.5;fill:#104E7D;" d="M213.569,445.176h59.836c0.177,0,0.348,0.02,0.516,0.052
				c-0.435-0.937-1.378-1.591-2.479-1.591h-59.836c-1.513,0-2.739,1.226-2.739,2.739v3.205h1.964v-1.666
				C210.83,446.402,212.056,445.176,213.569,445.176z"/>
			<path style="opacity:0.5;fill:#FFD249;" d="M208.938,371.468h70.479c0.472,0,0.92,0.085,1.354,0.205
				c-0.932-1.198-2.372-1.983-4.007-1.983h-70.479c-2.814,0-5.095,2.281-5.095,5.095c0,2.342,1.589,4.294,3.741,4.89
				c-0.671-0.863-1.087-1.934-1.087-3.112C203.843,373.749,206.124,371.468,208.938,371.468z"/>
			<path style="opacity:0.5;fill:#FFD249;" d="M216.038,351.858c-2.616,0-4.737-2.121-4.737-4.737v-49.365
				c0-2.459,0.557-4.782,1.528-6.875c-3.411,3.378-5.526,8.061-5.526,13.24v44.842c0,3.865,3.133,6.998,6.998,6.998h54.444
				c2.836,0,5.273-1.69,6.372-4.115c-0.038,0.001-0.074,0.011-0.113,0.011H216.038z"/>
		</g>
		<g>
			<g>
				<g>
					<g>
						<rect x="506.591" y="386.992" style="fill:#A6AAC7;" width="2.972" height="56.645"/>
					</g>
				</g>
				<g>
					<g>
						<path style="fill:#FFD249;" d="M543.316,379.88h-70.479c-2.814,0-5.095-2.281-5.095-5.095v0c0-2.814,2.281-5.095,5.095-5.095
							h70.479c2.814,0,5.095,2.281,5.095,5.095v0C548.411,377.599,546.13,379.88,543.316,379.88z"/>
						<path style="fill:#0F3C65;" d="M510.359,390.547h-4.564c-3.465,0-6.273-2.809-6.273-6.273v-0.838h17.111v0.838
							C516.633,387.739,513.824,390.547,510.359,390.547z"/>
						<path style="fill:#104E7D;" d="M484.528,383.436h47.097c2.18,0,3.996-1.52,4.471-3.556h-56.04
							C480.532,381.915,482.348,383.436,484.528,383.436z"/>
					</g>
					<g>
						<path style="fill:#0F3C65;" d="M511.544,443.637h-6.935v-36.445c0-0.78,0.632-1.412,1.412-1.412h4.111
							c0.78,0,1.412,0.632,1.412,1.412V443.637z"/>
					</g>
					<path style="fill:#A6AAC7;" d="M514.498,443.637h-12.843v-0.207c0-1.527,1.238-2.765,2.764-2.765h7.314
						c1.527,0,2.764,1.238,2.764,2.765V443.637z"/>
					<path style="fill:#0F3C65;" d="M540.734,449.581H475.42v-3.18c0-1.527,1.238-2.764,2.764-2.764h59.785
						c1.527,0,2.765,1.238,2.765,2.764V449.581z"/>
				</g>
			</g>
			<path style="fill:#104E7D;" d="M523.658,280.529h-15.581h-15.581c-13.03,0-23.592,10.563-23.592,23.592v44.842
				c0,6.601,5.351,11.952,11.952,11.952h27.222h27.222c6.601,0,11.952-5.351,11.952-11.952v-44.842
				C547.251,291.092,536.688,280.529,523.658,280.529z M542.297,348.964c0,3.865-3.133,6.998-6.998,6.998h-27.222h-27.222
				c-3.865,0-6.998-3.133-6.998-6.998v-44.842c0-10.294,8.345-18.639,18.639-18.639h15.581h15.581
				c10.294,0,18.639,8.345,18.639,18.639V348.964z"/>
			<rect x="506.591" y="360.915" style="fill:#0F3C65;" width="2.972" height="8.775"/>
			<path style="opacity:0.5;fill:#104E7D;" d="M535.299,355.962h-54.444c-3.865,0-6.998-3.133-6.998-6.998v1.769
				c0,3.865,3.133,6.998,6.998,6.998h54.444c3.865,0,6.998-3.133,6.998-6.998v-1.769
				C542.297,352.829,539.164,355.962,535.299,355.962z"/>
			<path style="fill:#FFD249;" d="M535.233,355.962h-54.313c-3.901,0-7.064-3.163-7.064-7.064v-44.601
				c0-10.391,8.424-18.814,18.814-18.814h30.812c10.391,0,18.814,8.423,18.814,18.814v44.601
				C542.297,352.799,539.135,355.962,535.233,355.962z"/>
			<rect x="506.591" y="360.915" style="opacity:0.5;fill:#0F3C65;" width="2.972" height="3.68"/>
			<path style="opacity:0.5;fill:#104E7D;" d="M480.057,379.88c0.126,0.539,0.351,1.038,0.646,1.486h54.747
				c0.296-0.448,0.521-0.947,0.647-1.486H480.057z"/>
			<path style="opacity:0.5;fill:#0F3C65;" d="M516.633,384.332v-0.897h-17.111v0.897c0,0.464,0.055,0.915,0.151,1.35h16.809
				C516.578,385.247,516.633,384.797,516.633,384.332z"/>
			<rect x="506.591" y="390.547" style="opacity:0.5;fill:#A6AAC7;" width="2.972" height="5.254"/>
			<path style="opacity:0.5;fill:#104E7D;" d="M507.508,406.84h3.988c-0.157-0.609-0.705-1.061-1.363-1.061h-4.111
				c-0.78,0-1.412,0.632-1.412,1.412v33.464h1.486v-32.402C506.096,407.473,506.728,406.84,507.508,406.84z"/>
			<path style="opacity:0.5;fill:#A6AAC7;" d="M505.668,441.62h7.366c0.329,0,0.64,0.067,0.932,0.174
				c-0.498-0.682-1.298-1.129-2.206-1.129h-7.366c-1.513,0-2.739,1.226-2.739,2.739v0.233h1.382
				C503.356,442.477,504.407,441.62,505.668,441.62z"/>
			<path style="opacity:0.5;fill:#104E7D;" d="M480.122,445.176h59.836c0.177,0,0.348,0.02,0.516,0.052
				c-0.435-0.937-1.378-1.591-2.479-1.591h-59.836c-1.513,0-2.739,1.226-2.739,2.739v3.205h1.964v-1.666
				C477.384,446.402,478.61,445.176,480.122,445.176z"/>
			<path style="opacity:0.5;fill:#FFD249;" d="M475.491,371.468h70.48c0.472,0,0.92,0.085,1.354,0.205
				c-0.932-1.198-2.372-1.983-4.008-1.983h-70.479c-2.814,0-5.095,2.281-5.095,5.095c0,2.342,1.589,4.294,3.741,4.89
				c-0.671-0.863-1.087-1.934-1.087-3.112C470.396,373.749,472.677,371.468,475.491,371.468z"/>
			<path style="opacity:0.5;fill:#FFD249;" d="M482.592,351.858c-2.616,0-4.737-2.121-4.737-4.737v-49.365
				c0-2.459,0.557-4.782,1.528-6.875c-3.411,3.378-5.526,8.061-5.526,13.24v44.842c0,3.865,3.133,6.998,6.998,6.998h54.444
				c2.836,0,5.273-1.69,6.372-4.115c-0.038,0.001-0.074,0.011-0.113,0.011H482.592z"/>
		</g>
		<g>
			<g>
				<g>
					<g>
						<rect x="373.514" y="386.992" style="fill:#A6AAC7;" width="2.972" height="56.645"/>
					</g>
				</g>
				<g>
					<g>
						<path style="fill:#FFD249;" d="M410.24,379.88H339.76c-2.814,0-5.095-2.281-5.095-5.095v0c0-2.814,2.281-5.095,5.095-5.095
							h70.479c2.814,0,5.095,2.281,5.095,5.095v0C415.335,377.599,413.053,379.88,410.24,379.88z"/>
						<path style="fill:#0F3C65;" d="M377.282,390.547h-4.564c-3.465,0-6.273-2.809-6.273-6.273v-0.838h17.111v0.838
							C383.556,387.739,380.747,390.547,377.282,390.547z"/>
						<path style="fill:#104E7D;" d="M351.452,383.436h47.097c2.18,0,3.996-1.52,4.471-3.556h-56.04
							C347.455,381.915,349.271,383.436,351.452,383.436z"/>
					</g>
					<g>
						<path style="fill:#0F3C65;" d="M378.468,443.637h-6.935v-36.445c0-0.78,0.632-1.412,1.412-1.412h4.111
							c0.78,0,1.412,0.632,1.412,1.412V443.637z"/>
					</g>
					<path style="fill:#A6AAC7;" d="M381.422,443.637h-12.843v-0.207c0-1.527,1.238-2.765,2.765-2.765h7.314
						c1.527,0,2.764,1.238,2.764,2.765V443.637z"/>
					<path style="fill:#0F3C65;" d="M407.657,449.581h-65.314v-3.18c0-1.527,1.238-2.764,2.765-2.764h59.785
						c1.527,0,2.764,1.238,2.764,2.764V449.581z"/>
				</g>
			</g>
			<path style="fill:#104E7D;" d="M390.581,280.529H375h-15.581c-13.03,0-23.592,10.563-23.592,23.592v44.842
				c0,6.601,5.351,11.952,11.952,11.952H375h27.222c6.601,0,11.952-5.351,11.952-11.952v-44.842
				C414.174,291.092,403.611,280.529,390.581,280.529z M409.22,348.964c0,3.865-3.133,6.998-6.998,6.998H375h-27.222
				c-3.865,0-6.998-3.133-6.998-6.998v-44.842c0-10.294,8.345-18.639,18.639-18.639H375h15.581c10.294,0,18.639,8.345,18.639,18.639
				V348.964z"/>
			<rect x="373.514" y="360.915" style="fill:#0F3C65;" width="2.972" height="8.775"/>
			<path style="opacity:0.5;fill:#104E7D;" d="M402.222,355.962h-54.444c-3.865,0-6.998-3.133-6.998-6.998v1.769
				c0,3.865,3.133,6.998,6.998,6.998h54.444c3.865,0,6.998-3.133,6.998-6.998v-1.769
				C409.22,352.829,406.087,355.962,402.222,355.962z"/>
			<path style="fill:#FFD249;" d="M402.156,355.962h-54.313c-3.901,0-7.064-3.163-7.064-7.064v-44.601
				c0-10.391,8.424-18.814,18.815-18.814h30.812c10.391,0,18.814,8.423,18.814,18.814v44.601
				C409.22,352.799,406.058,355.962,402.156,355.962z"/>
			<rect x="373.514" y="360.915" style="opacity:0.5;fill:#0F3C65;" width="2.972" height="3.68"/>
			<path style="opacity:0.5;fill:#104E7D;" d="M346.98,379.88c0.126,0.539,0.351,1.038,0.646,1.486h54.747
				c0.296-0.448,0.521-0.947,0.647-1.486H346.98z"/>
			<path style="opacity:0.5;fill:#0F3C65;" d="M383.556,384.332v-0.897h-17.111v0.897c0,0.464,0.055,0.915,0.151,1.35h16.809
				C383.501,385.247,383.556,384.797,383.556,384.332z"/>
			<rect x="373.514" y="390.547" style="opacity:0.5;fill:#A6AAC7;" width="2.972" height="5.254"/>
			<path style="opacity:0.5;fill:#104E7D;" d="M374.431,406.84h3.988c-0.157-0.609-0.705-1.061-1.363-1.061h-4.111
				c-0.78,0-1.412,0.632-1.412,1.412v33.464h1.486v-32.402C373.019,407.473,373.651,406.84,374.431,406.84z"/>
			<path style="opacity:0.5;fill:#A6AAC7;" d="M372.591,441.62h7.366c0.329,0,0.64,0.067,0.932,0.174
				c-0.498-0.682-1.297-1.129-2.206-1.129h-7.366c-1.512,0-2.739,1.226-2.739,2.739v0.233h1.382
				C370.279,442.477,371.33,441.62,372.591,441.62z"/>
			<path style="opacity:0.5;fill:#104E7D;" d="M347.046,445.176h59.836c0.177,0,0.348,0.02,0.516,0.052
				c-0.435-0.937-1.378-1.591-2.479-1.591h-59.836c-1.513,0-2.739,1.226-2.739,2.739v3.205h1.964v-1.666
				C344.307,446.402,345.533,445.176,347.046,445.176z"/>
			<path style="opacity:0.5;fill:#FFD249;" d="M342.414,371.468h70.479c0.472,0,0.92,0.085,1.354,0.205
				c-0.932-1.198-2.372-1.983-4.008-1.983H339.76c-2.814,0-5.095,2.281-5.095,5.095c0,2.342,1.589,4.294,3.741,4.89
				c-0.671-0.863-1.087-1.934-1.087-3.112C337.319,373.749,339.6,371.468,342.414,371.468z"/>
			<path style="opacity:0.5;fill:#FFD249;" d="M349.515,351.858c-2.616,0-4.737-2.121-4.737-4.737v-49.365
				c0-2.459,0.557-4.782,1.528-6.875c-3.41,3.378-5.526,8.061-5.526,13.24v44.842c0,3.865,3.133,6.998,6.998,6.998h54.444
				c2.836,0,5.273-1.69,6.372-4.115c-0.038,0.001-0.074,0.011-0.113,0.011H349.515z"/>
		</g>
		<g>
			<path style="fill:#47456A;" d="M643.685,338.079h-537.37c-2.892,0-5.236-2.345-5.236-5.236v0c0-2.892,2.344-5.236,5.236-5.236
				h537.37c2.892,0,5.237,2.345,5.237,5.236v0C648.921,335.735,646.577,338.079,643.685,338.079z"/>
			<path style="fill:#A6AAC7;" d="M121.946,452.007h-2.577c-1.741,0-2.958-1.725-2.373-3.365l39.418-110.563h7.925l-40.021,112.254
				C123.961,451.337,123.011,452.007,121.946,452.007z"/>
			<path style="fill:#A6AAC7;" d="M181.66,441.109h-2.591c-1.705,0-2.935-1.634-2.462-3.273l28.776-99.757h7.925l-29.186,101.178
				C183.805,440.354,182.801,441.109,181.66,441.109z"/>
			<path style="fill:#A6AAC7;" d="M628.054,452.007h2.577c1.741,0,2.958-1.725,2.373-3.365l-39.418-110.563h-7.925l40.021,112.254
				C626.039,451.337,626.988,452.007,628.054,452.007z"/>
			<path style="fill:#A6AAC7;" d="M568.34,441.109h2.591c1.705,0,2.935-1.634,2.462-3.273l-28.776-99.757h-7.925l29.186,101.178
				C566.194,440.354,567.198,441.109,568.34,441.109z"/>
			<polygon style="opacity:0.5;fill:#A6AAC7;" points="156.415,338.079 153.615,345.934 161.54,345.934 164.34,338.079 			"/>
			<polygon style="opacity:0.5;fill:#A6AAC7;" points="205.382,338.079 203.117,345.934 211.042,345.934 213.308,338.079 			"/>
			<polygon style="opacity:0.5;fill:#A6AAC7;" points="593.585,338.079 596.385,345.934 588.492,345.934 585.66,338.079 			"/>
			<polygon style="opacity:0.5;fill:#A6AAC7;" points="544.617,338.079 546.883,345.934 538.958,345.934 536.692,338.079 			"/>
			<path style="opacity:0.5;fill:#47456A;" d="M643.685,334.541h-537.37c-2.268,0-4.181-1.45-4.908-3.467
				c-0.2,0.555-0.328,1.145-0.328,1.769v0c0,2.892,2.344,5.236,5.236,5.236h537.37c2.892,0,5.237-2.345,5.237-5.236v0
				c0-0.624-0.128-1.214-0.328-1.769C647.866,333.091,645.953,334.541,643.685,334.541z"/>
		</g>
		<path style="fill:#688CCB;" d="M694.303,457.428H55.697c-1.46,0-2.643-1.183-2.643-2.643v-2.574c0-1.46,1.183-2.643,2.643-2.643
			h638.607c1.46,0,2.643,1.183,2.643,2.643v2.574C696.946,456.245,695.763,457.428,694.303,457.428z"/>
		<g>
			<g>
				<g>
					<g>
						<rect x="97.697" y="387.04" style="fill:#A6AAC7;" width="2.972" height="56.645"/>
					</g>
				</g>
				<g>
					<g>
						<path style="fill:#0F3C65;" d="M62.322,376.319h-7.465c-3.726,0-6.758-3.031-6.758-6.758v-8.598h2.972v8.598
							c0,2.088,1.698,3.786,3.786,3.786h7.465V376.319z"/>
					</g>
					<g>
						<path style="fill:#FFD249;" d="M134.422,379.928H63.943c-2.814,0-5.095-2.281-5.095-5.095l0,0
							c0-2.814,2.281-5.095,5.095-5.095h70.479c2.814,0,5.095,2.281,5.095,5.095l0,0
							C139.517,377.647,137.236,379.928,134.422,379.928z"/>
						<path style="fill:#0F3C65;" d="M101.465,390.595H96.9c-3.465,0-6.273-2.809-6.273-6.273v-0.838h17.111v0.838
							C107.738,387.787,104.929,390.595,101.465,390.595z"/>
						<path style="fill:#104E7D;" d="M75.634,383.484h47.097c2.18,0,3.996-1.52,4.472-3.556h-56.04
							C71.638,381.963,73.454,383.484,75.634,383.484z"/>
					</g>
					<path style="fill:#104E7D;" d="M44.49,358.911v-70.479c0-2.814,2.281-5.095,5.095-5.095l0,0c2.814,0,5.095,2.281,5.095,5.095
						v70.479c0,2.814-2.281,5.095-5.095,5.095l0,0C46.771,364.006,44.49,361.725,44.49,358.911z"/>
					<path style="fill:#FFD249;" d="M54.68,288.432v70.479c0,0,10.756-4.812,10.756-35.24S54.68,288.432,54.68,288.432z"/>
					<g>
						<path style="fill:#0F3C65;" d="M102.65,443.684h-6.935v-36.445c0-0.78,0.632-1.412,1.412-1.412h4.111
							c0.78,0,1.412,0.632,1.412,1.412V443.684z"/>
					</g>
					<path style="fill:#A6AAC7;" d="M105.604,443.685H92.761v-0.208c0-1.527,1.238-2.764,2.765-2.764h7.314
						c1.527,0,2.764,1.238,2.764,2.764V443.685z"/>
					<path style="fill:#0F3C65;" d="M131.839,449.629H66.526v-3.18c0-1.527,1.238-2.764,2.765-2.764h59.785
						c1.527,0,2.764,1.238,2.764,2.764V449.629z"/>
				</g>
				<path style="opacity:0.5;fill:#104E7D;" d="M116.282,443.685h-5.516c2.292,1.805,4.44,3.791,6.41,5.944h6.744
					c-2.391-1.896-4.791-3.779-7.221-5.624C116.573,443.908,116.431,443.799,116.282,443.685z"/>
			</g>
			<path style="opacity:0.5;fill:#FFD968;" d="M56.038,292.871c-0.849-1.303-1.358-2.56-1.358-2.56v64.6
				c1.838-3.114,5.654-9.255,6.783-16.636c-0.711,0.032-1.428,0.052-2.155,0.051C57.827,323.214,56.354,308.038,56.038,292.871z"/>
			<path style="opacity:0.5;fill:#FFD968;" d="M85.331,374.855c10.456-0.058,20.917,1.087,31.113,3.405
				c0.726,0.165,1.49,0.357,2.018,0.882c0.23,0.228,0.392,0.496,0.5,0.786h5.087c0.15-0.668,0.301-1.336,0.461-2.001
				c0.112-0.468,0.228-0.935,0.346-1.4c0.32-1.26,0.676-2.504,1.053-3.737c0-0.001,0.001-0.002,0.001-0.003
				c-9.626-0.974-19.313-1.336-28.984-1.056c-4.904,0.142-9.826,0.444-14.707-0.051c-2.907-0.295-5.818-0.902-8.543-1.941H65.17
				c2.028,2.237,4.958,3.698,7.94,4.401C77.092,375.079,81.24,374.878,85.331,374.855z"/>
		</g>
		<g>
			<g>
				<g>
					<path style="fill:#FCC1B1;" d="M120.165,436.691L120.165,436.691c0.097-0.014,0.198-0.035,0.297-0.052
						c-0.224,0.038-0.449,0.08-0.665,0.101c-0.038,0.004-0.076,0.001-0.114,0.004c0.038-0.003,0.076,0,0.114-0.004
						C119.917,436.728,120.042,436.709,120.165,436.691z"/>
					<path style="fill:#FCC1B1;" d="M120.603,427.706c-0.069-0.021-0.139-0.036-0.208-0.057
						C120.464,427.67,120.534,427.685,120.603,427.706z"/>
					<path style="fill:#FCC1B1;" d="M121.899,428.058c0.514,0.117,1.028,0.212,1.538,0.281c-0.35-0.047-0.704-0.123-1.057-0.193
						C122.219,428.114,122.06,428.094,121.899,428.058z"/>
					<path style="fill:#FCC1B1;" d="M117.733,436.552c0.366,0.084,0.734,0.147,1.103,0.179
						C118.467,436.699,118.1,436.636,117.733,436.552z"/>
					<path style="fill:#FCC1B1;" d="M121.829,435.619c0,0.003-0.001,0.006-0.001,0.01
						C121.828,435.625,121.829,435.622,121.829,435.619z"/>
					<path style="fill:#FCC1B1;" d="M114.926,435.772c0.08,0.035,0.164,0.066,0.253,0.087c0.522,0.126,1.042,0.285,1.562,0.434
						c-0.521-0.15-1.041-0.308-1.562-0.434c-0.108-0.026-0.205-0.068-0.299-0.113C114.896,435.754,114.91,435.765,114.926,435.772
						L114.926,435.772z"/>
					<path style="fill:#FCC1B1;" d="M114.738,435.666c-0.059-0.035-0.118-0.07-0.173-0.11c0.016,0.012,0.031,0.025,0.047,0.036
						c0.005,0.004,0.011,0.008,0.016,0.012C114.662,435.628,114.702,435.645,114.738,435.666z"/>
					<path style="fill:#0C3C62;" d="M123.915,380.514c0.19-0.866,0.39-1.728,0.596-2.587
						C124.304,378.787,124.105,379.649,123.915,380.514z"/>
					<path style="fill:#0C3C62;" d="M124.856,376.527c0.449-1.771,0.947-3.522,1.517-5.238
						C125.803,373.005,125.305,374.755,124.856,376.527z"/>
					<path style="fill:#0C3C62;" d="M123.493,428.337L123.493,428.337c0.548,0.048,1.067-0.262,1.252-0.785c0,0,0,0,0,0
						C124.561,428.074,124.041,428.385,123.493,428.337z"/>
					<path style="fill:#0C3C62;" d="M120.395,427.648C120.395,427.648,120.395,427.649,120.395,427.648
						c0.069,0.022,0.139,0.037,0.208,0.058c0.003,0.001,0.007,0.002,0.011,0.003C120.541,427.687,120.467,427.671,120.395,427.648z"
						/>
					<path style="fill:#0C3C62;" d="M121.899,428.058C121.899,428.058,121.899,428.058,121.899,428.058
						c0.161,0.037,0.32,0.056,0.481,0.088C122.219,428.114,122.06,428.094,121.899,428.058z"/>
					<path style="fill:#0D3F64;" d="M113.625,434.786c0.029,0.017,0.057,0.037,0.086,0.056
						C113.683,434.823,113.654,434.804,113.625,434.786z"/>
					<path style="fill:#0D3F64;" d="M123.259,436.58c0.034,0.015,0.069,0.031,0.102,0.049
						C123.327,436.611,123.293,436.595,123.259,436.58z"/>
					<path style="fill:#0D3F64;" d="M121.874,436.417c0.014-0.001,0.027-0.002,0.041-0.003
						C121.901,436.415,121.888,436.416,121.874,436.417z"/>
					<path style="fill:#0D3F64;" d="M122.857,436.446c0.022,0.005,0.044,0.013,0.066,0.018
						C122.901,436.459,122.88,436.451,122.857,436.446z"/>
					<path style="fill:#0D3F64;" d="M122.35,436.396c0.022,0,0.045-0.001,0.067,0C122.394,436.396,122.372,436.397,122.35,436.396z"
						/>
					<path style="fill:#0D3F64;" d="M113.825,434.927c0.016,0.013,0.033,0.026,0.049,0.039
						C113.858,434.953,113.841,434.94,113.825,434.927z"/>
					<path style="fill:#0D3F64;" d="M113.728,444.005c3.791,2.879,7.522,5.835,11.23,8.819c0.659,0.53,1.327,1.142,2.009,1.757
						c-0.682-0.615-1.35-1.227-2.009-1.757C121.249,449.84,117.518,446.884,113.728,444.005z"/>
					<path style="fill:#0D3F64;" d="M110.777,441.703c-0.21-0.166-0.376-0.297-0.475-0.376
						C110.401,441.405,110.567,441.537,110.777,441.703z"/>
					<path style="fill:#0D3F64;" d="M112.087,442.733c-0.488-0.382-0.96-0.754-1.31-1.03
						C111.127,441.979,111.599,442.351,112.087,442.733z"/>
					<path style="fill:#0D3F64;" d="M110.86,436.51c0.262-0.341,0.499-0.625,0.716-0.862
						C111.359,435.884,111.121,436.169,110.86,436.51z"/>
					<path style="fill:#0D3F64;" d="M113.127,434.638c0.151,0,0.288,0.039,0.416,0.105
						C113.415,434.677,113.278,434.639,113.127,434.638z"/>
					<path style="fill:#0D3F64;" d="M110.182,441.238c-0.007-0.003-0.018-0.008-0.028-0.013
						C110.166,441.231,110.175,441.235,110.182,441.238z"/>
					<path style="fill:#0D3F64;" d="M110.134,441.217c-0.017-0.009-0.037-0.018-0.059-0.031
						C110.098,441.198,110.117,441.208,110.134,441.217z"/>
					<path style="fill:#0D3F64;" d="M110.199,441.245c0,0,0.037,0.029,0.103,0.081C110.236,441.274,110.199,441.245,110.199,441.245
						L110.199,441.245z"/>
					<path style="fill:#0D3F64;" d="M124.576,440.708c-0.059-0.41-0.104-0.823-0.126-1.238
						C124.471,439.885,124.516,440.298,124.576,440.708z"/>
					<path style="fill:#0D3F64;" d="M109.567,438.677c-0.638,1.678,0.176,2.326,0.505,2.507
						C109.742,440.998,108.931,440.349,109.567,438.677z"/>
					<path style="fill:#0D3F64;" d="M130.808,457.421c-0.12-0.014-0.222-0.049-0.296-0.105
						C130.586,457.371,130.687,457.406,130.808,457.421z"/>
					<path style="fill:#0D3F64;" d="M124.963,442.497c0.055,0.193,0.113,0.386,0.176,0.577
						C125.076,442.882,125.017,442.69,124.963,442.497z"/>
					<path style="fill:#0D3F64;" d="M112.207,435.046c0.25-0.198,0.466-0.314,0.658-0.369
						C112.674,434.73,112.457,434.848,112.207,435.046z"/>
					<path style="fill:#0D3F64;" d="M125.373,443.738c0.052,0.135,0.109,0.268,0.165,0.402
						C125.482,444.006,125.425,443.874,125.373,443.738z"/>
					<path style="fill:#0D3F64;" d="M112.913,434.664c0.056-0.013,0.11-0.022,0.162-0.025
						C113.023,434.642,112.969,434.651,112.913,434.664z"/>
					<path style="fill:#0D3F64;" d="M124.658,441.168c0.045,0.251,0.093,0.501,0.152,0.75
						C124.751,441.669,124.703,441.419,124.658,441.168z"/>
					<path style="fill:#0D3F64;" d="M128.215,448.323c0.232,0.256,0.47,0.506,0.724,0.741
						C128.686,448.829,128.45,448.576,128.215,448.323z"/>
					<path style="fill:#0D3F64;" d="M111.588,435.633c0.097-0.105,0.188-0.197,0.277-0.283
						C111.776,435.436,111.685,435.528,111.588,435.633z"/>
					<path style="fill:#0D3F64;" d="M111.931,435.287c0.086-0.081,0.17-0.156,0.249-0.22
						C112.101,435.13,112.017,435.206,111.931,435.287z"/>
					<path style="fill:#0D3F64;" d="M125.882,444.914c0.003,0.006,0.006,0.011,0.009,0.017
						C125.888,444.926,125.885,444.92,125.882,444.914z"/>
					<path style="fill:#0D3F64;" d="M114.628,435.604c-0.006-0.004-0.011-0.008-0.016-0.012
						C114.617,435.596,114.622,435.6,114.628,435.604z"/>
					<g>
						<path style="fill:#082A45;" d="M131.918,457.167c-0.08,0.038-0.159,0.072-0.238,0.102
							C131.76,457.238,131.838,457.205,131.918,457.167z"/>
						<path style="fill:#082A45;" d="M131.68,457.269c-0.055,0.021-0.11,0.042-0.164,0.059
							C131.571,457.311,131.625,457.29,131.68,457.269z"/>
						<path style="fill:#082A45;" d="M132.091,457.076c-0.057,0.032-0.115,0.063-0.173,0.091
							C131.977,457.138,132.033,457.109,132.091,457.076z"/>
						<path style="fill:#082A45;" d="M132.191,457.024l-0.008-0.006c-0.031,0.019-0.061,0.041-0.092,0.058
							C132.124,457.057,132.158,457.044,132.191,457.024z"/>
						<path style="fill:#082A45;" d="M131.139,457.413c-0.119,0.015-0.232,0.02-0.331,0.008
							C130.907,457.433,131.019,457.428,131.139,457.413z"/>
						<path style="fill:#082A45;" d="M133.422,455.011c-0.011-1.283-0.72-2.468-1.601-3.4c-0.69-0.731-1.489-1.347-2.255-1.998
							c-0.702-0.206-1.38-0.525-2.01-0.9c-2.269-1.35-4.178-3.299-5.479-5.596c-0.596-1.052-1.044-2.18-1.367-3.344
							c-0.28-1.007-0.468-2.04-0.545-3.083c-0.124,0.018-0.248,0.038-0.368,0.049c-0.038,0.003-0.076,0.001-0.114,0.004
							c-0.284,0.02-0.566,0.013-0.847-0.012c-0.369-0.033-0.737-0.096-1.103-0.18c-0.331-0.076-0.662-0.163-0.992-0.258
							c-0.521-0.15-1.041-0.308-1.562-0.434c-0.09-0.021-0.173-0.052-0.253-0.088c-0.21,0.164-0.416,0.333-0.623,0.501
							c-0.376,0.303-0.759,0.592-1.203,0.774c-0.802,0.33-1.741,0.23-2.49-0.199c0.048-0.067,0.086-0.127,0.138-0.196
							c-0.606,0.805-0.968,1.468-1.18,2.025l22.616,18.341C132.843,456.616,133.43,455.934,133.422,455.011z"/>
						<path style="fill:#082A45;" d="M131.268,457.387c-0.043,0.008-0.088,0.02-0.13,0.026
							C131.18,457.408,131.225,457.396,131.268,457.387z"/>
						<path style="fill:#082A45;" d="M131.516,457.328c-0.085,0.026-0.167,0.044-0.248,0.06
							C131.35,457.372,131.43,457.354,131.516,457.328z"/>
					</g>
					<path style="fill:#FFFFFF;" d="M130.808,457.421C130.808,457.421,130.808,457.421,130.808,457.421
						C130.808,457.421,130.808,457.421,130.808,457.421z"/>
					<polygon style="fill:#FFFFFF;" points="109.567,438.677 109.567,438.677 109.567,438.677 					"/>
					<path style="fill:#FFFFFF;" d="M110.075,441.185c-0.001-0.001-0.002-0.001-0.003-0.002
						C110.073,441.184,110.074,441.185,110.075,441.185z"/>
					<path style="fill:#FFFFFF;" d="M110.153,441.225c-0.006-0.002-0.012-0.006-0.019-0.009
						C110.142,441.22,110.147,441.223,110.153,441.225z"/>
					<path style="fill:#FFFFFF;" d="M110.182,441.238c0.011,0.005,0.017,0.007,0.017,0.007l0,0
						C110.199,441.245,110.19,441.241,110.182,441.238z"/>
					<path style="fill:#FFFFFF;" d="M132.191,457.024l-22.624-18.347c0,0,0,0,0,0c-0.636,1.672,0.175,2.321,0.505,2.507
						c0.001,0.001,0.002,0.001,0.003,0.002c0.022,0.013,0.042,0.023,0.059,0.031c0.007,0.003,0.013,0.006,0.019,0.009
						c0.01,0.005,0.021,0.01,0.028,0.013c0.008,0.003,0.017,0.007,0.017,0.007l0,0l0,0c0,0,0.037,0.029,0.103,0.081
						c0.099,0.079,0.265,0.21,0.475,0.376c0.35,0.276,0.822,0.648,1.31,1.03c0.585,0.459,1.193,0.932,1.641,1.272
						c3.791,2.879,7.522,5.835,11.23,8.819c0.659,0.53,1.327,1.142,2.009,1.757c1.137,1.025,2.311,2.058,3.544,2.735
						c0.074,0.056,0.176,0.091,0.296,0.105c0,0,0,0,0,0C131.169,457.464,131.701,457.324,132.191,457.024z"/>
					<path style="fill:#FFFFFF;" d="M111.865,435.35c0.022-0.021,0.044-0.043,0.066-0.063
						C111.91,435.307,111.887,435.328,111.865,435.35z"/>
					<path style="fill:#FFFFFF;" d="M111.575,435.648c0.004-0.005,0.009-0.01,0.013-0.015
						C111.584,435.638,111.579,435.643,111.575,435.648z"/>
					<path style="fill:#FFFFFF;" d="M113.075,434.639c0.018-0.001,0.035-0.001,0.052,0
						C113.11,434.638,113.092,434.638,113.075,434.639z"/>
					<path style="fill:#FFFFFF;" d="M112.866,434.677c0.016-0.004,0.032-0.01,0.047-0.013
						C112.897,434.667,112.882,434.672,112.866,434.677z"/>
					<path style="fill:#FFFFFF;" d="M112.18,435.066c0.009-0.007,0.018-0.014,0.027-0.021
						C112.198,435.053,112.19,435.059,112.18,435.066z"/>
					<path style="fill:#FFFFFF;" d="M113.711,434.843c0.038,0.027,0.076,0.054,0.114,0.084
						C113.787,434.897,113.749,434.869,113.711,434.843z"/>
					<path style="fill:#FFFFFF;" d="M113.544,434.743c0.028,0.014,0.055,0.027,0.082,0.043
						C113.599,434.771,113.571,434.757,113.544,434.743z"/>
					<polygon style="fill:#FFFFFF;" points="110.86,436.51 110.856,436.514 110.856,436.514 					"/>
					<path style="fill:#FFFFFF;" d="M114.356,435.394c-0.168-0.145-0.324-0.297-0.482-0.428
						C114.031,435.097,114.188,435.249,114.356,435.394L114.356,435.394z"/>
					<path style="fill:#FFFFFF;" d="M112.448,436.492c0.725-0.17,1.394-0.561,1.908-1.099c-0.168-0.144-0.325-0.296-0.482-0.428
						c-0.016-0.014-0.033-0.026-0.049-0.039c-0.037-0.03-0.075-0.057-0.114-0.084c-0.028-0.02-0.057-0.039-0.086-0.056
						c-0.027-0.016-0.054-0.029-0.082-0.043c-0.129-0.065-0.265-0.105-0.416-0.105c-0.017,0-0.035-0.001-0.052,0
						c-0.052,0.003-0.106,0.011-0.162,0.025c-0.015,0.003-0.032,0.009-0.047,0.013c-0.192,0.055-0.408,0.17-0.658,0.369
						c-0.009,0.007-0.018,0.013-0.027,0.021c-0.079,0.064-0.163,0.139-0.249,0.22c-0.021,0.02-0.044,0.042-0.066,0.063
						c-0.089,0.086-0.18,0.178-0.277,0.283c-0.004,0.005-0.009,0.01-0.013,0.015c-0.217,0.236-0.454,0.521-0.716,0.862
						c-0.001,0.001-0.002,0.003-0.004,0.004C111.382,436.614,111.926,436.615,112.448,436.492z"/>
					<path style="opacity:0.5;fill:#0D3F64;" d="M129.566,449.613c-0.212-0.18-0.423-0.361-0.627-0.55
						C129.143,449.252,129.354,449.433,129.566,449.613C129.566,449.613,129.566,449.613,129.566,449.613z"/>
					<polygon style="opacity:0.5;fill:#0D3F64;" points="127.732,447.769 127.731,447.769 127.731,447.769 					"/>
					<path style="opacity:0.5;fill:#0D3F64;" d="M128.215,448.323c-0.164-0.182-0.327-0.365-0.484-0.554c0,0,0,0,0,0
						C127.888,447.958,128.048,448.142,128.215,448.323z"/>
					<path style="fill:#FCC1B1;" d="M120.165,436.691c0.17-0.025,0.342-0.053,0.515-0.085c-0.074,0.013-0.145,0.021-0.218,0.033
						C120.363,436.656,120.263,436.676,120.165,436.691L120.165,436.691z"/>
					<path style="opacity:0.5;fill:#0D3F64;" d="M120.165,436.691c0.17-0.025,0.342-0.053,0.515-0.085
						c-0.074,0.013-0.145,0.021-0.218,0.033C120.363,436.656,120.263,436.676,120.165,436.691L120.165,436.691z"/>
					<path style="fill:#0D3F64;" d="M127.732,447.769L127.732,447.769C127.731,447.769,127.731,447.769,127.732,447.769
						c-1.981-1.321-3.666-3.085-4.84-5.157c-0.48-0.848-0.857-1.747-1.156-2.671l-1.026-0.167c0.323,1.164,0.771,2.291,1.367,3.344
						c1.302,2.297,3.21,4.246,5.479,5.596c0.63,0.375,1.308,0.694,2.01,0.9c-0.212-0.18-0.423-0.361-0.626-0.549
						c-0.254-0.235-0.492-0.485-0.724-0.741C128.048,448.142,127.888,447.958,127.732,447.769
						C127.732,447.769,127.732,447.769,127.732,447.769z"/>
					<path style="opacity:0.5;fill:#0D3F64;" d="M127.732,447.769L127.732,447.769C127.731,447.769,127.731,447.769,127.732,447.769
						c-1.981-1.321-3.666-3.085-4.84-5.157c-0.48-0.848-0.857-1.747-1.156-2.671l-1.026-0.167c0.323,1.164,0.771,2.291,1.367,3.344
						c1.302,2.297,3.21,4.246,5.479,5.596c0.63,0.375,1.308,0.694,2.01,0.9c-0.212-0.18-0.423-0.361-0.626-0.549
						c-0.254-0.235-0.492-0.485-0.724-0.741C128.048,448.142,127.888,447.958,127.732,447.769
						C127.732,447.769,127.732,447.769,127.732,447.769z"/>
					<path style="fill:#0D3F64;" d="M121.026,436.551c-0.116,0.021-0.23,0.034-0.346,0.055c-0.173,0.032-0.345,0.06-0.515,0.085
						c0.076,1.043,0.265,2.076,0.545,3.083l1.026,0.167C121.379,438.842,121.137,437.704,121.026,436.551z"/>
					<path style="opacity:0.5;fill:#0D3F64;" d="M121.026,436.551c-0.116,0.021-0.23,0.034-0.346,0.055
						c-0.173,0.032-0.345,0.06-0.515,0.085c0.076,1.043,0.265,2.076,0.545,3.083l1.026,0.167
						C121.379,438.842,121.137,437.704,121.026,436.551z"/>
					<path style="fill:#FFFFFF;" d="M121.75,436.433L121.75,436.433c0.041-0.005,0.083-0.012,0.124-0.016
						c-0.041,0.004-0.082,0.006-0.123,0.011C121.751,436.43,121.75,436.432,121.75,436.433L121.75,436.433z"/>
					<path style="fill:#FFFFFF;" d="M125.538,444.14c0.109,0.261,0.219,0.52,0.344,0.774
						C125.757,444.661,125.648,444.4,125.538,444.14z"/>
					<path style="fill:#FFFFFF;" d="M125.139,443.073c0.073,0.224,0.15,0.445,0.234,0.665
						C125.288,443.519,125.212,443.297,125.139,443.073z"/>
					<path style="fill:#FFFFFF;" d="M124.81,441.918c0.046,0.194,0.099,0.387,0.153,0.579
						C124.909,442.305,124.856,442.112,124.81,441.918z"/>
					<path style="fill:#FFFFFF;" d="M124.658,441.168c-0.028-0.153-0.06-0.305-0.082-0.46
						C124.598,440.863,124.631,441.015,124.658,441.168z"/>
					<path style="fill:#FFFFFF;" d="M122.416,436.397c0.151,0.005,0.298,0.021,0.441,0.05
						C122.715,436.417,122.567,436.401,122.416,436.397z"/>
					<path style="fill:#FFFFFF;" d="M122.923,436.464c0.116,0.028,0.228,0.067,0.336,0.116
						C123.151,436.531,123.039,436.492,122.923,436.464z"/>
					<path style="fill:#FFFFFF;" d="M127.731,447.769c-0.723-0.868-1.341-1.824-1.84-2.837
						C126.389,445.947,127.008,446.9,127.731,447.769L127.731,447.769z"/>
					<path style="fill:#FFFFFF;" d="M124.113,437.417c-0.096-0.2-0.223-0.383-0.392-0.539c-0.112-0.104-0.234-0.182-0.36-0.249
						c0.126,0.067,0.248,0.145,0.36,0.249C123.89,437.034,124.017,437.216,124.113,437.417z"/>
					<path style="fill:#FFFFFF;" d="M124.113,437.417c0.144,0.3,0.22,0.64,0.263,0.991
						C124.333,438.057,124.258,437.717,124.113,437.417z"/>
					<path style="fill:#FFFFFF;" d="M121.915,436.414c0.147-0.013,0.293-0.019,0.435-0.017
						C122.207,436.395,122.062,436.4,121.915,436.414z"/>
					<path style="fill:#FFFFFF;" d="M124.45,439.471c0-0.002,0-0.004-0.001-0.005c-0.018-0.345-0.03-0.707-0.073-1.058
						c0.044,0.351,0.055,0.713,0.073,1.058C124.449,439.467,124.45,439.469,124.45,439.471z"/>
					<polygon style="fill:#FFFFFF;" points="121.75,436.433 121.75,436.433 121.749,436.434 					"/>
					<path style="fill:#FFFFFF;" d="M121.879,439.965l-0.143-0.023c0.3,0.924,0.676,1.823,1.156,2.671
						c1.174,2.072,2.859,3.835,4.84,5.156c-0.723-0.869-1.343-1.821-1.84-2.837c-0.003-0.006-0.006-0.011-0.009-0.017
						c-0.124-0.254-0.235-0.513-0.344-0.774c-0.056-0.134-0.113-0.266-0.165-0.402c-0.084-0.22-0.161-0.441-0.234-0.665
						c-0.063-0.191-0.121-0.383-0.176-0.577c-0.054-0.192-0.107-0.385-0.153-0.579c-0.059-0.248-0.106-0.498-0.152-0.75
						c-0.027-0.153-0.06-0.305-0.082-0.46c-0.06-0.41-0.104-0.823-0.126-1.238c0-0.002,0-0.004-0.001-0.005
						c-0.018-0.345-0.03-0.707-0.073-1.058c-0.043-0.351-0.119-0.691-0.263-0.991c-0.096-0.2-0.223-0.383-0.392-0.539
						c-0.112-0.104-0.234-0.182-0.36-0.249c-0.034-0.018-0.068-0.033-0.102-0.049c-0.108-0.049-0.22-0.088-0.336-0.116
						c-0.022-0.005-0.044-0.013-0.066-0.018c-0.143-0.029-0.29-0.045-0.441-0.05c-0.022-0.001-0.045,0-0.067,0
						c-0.142-0.002-0.287,0.004-0.435,0.017c-0.014,0.001-0.027,0.002-0.041,0.003c-0.041,0.004-0.083,0.012-0.124,0.016
						C121.564,438.849,121.879,439.965,121.879,439.965z"/>
					<path style="fill:#FFFFFF;" d="M121.026,436.551c0.111,1.153,0.353,2.291,0.709,3.391l0.143,0.023c0,0-0.315-1.116-0.129-3.532
						c0,0-0.001,0-0.001,0C121.511,436.462,121.268,436.507,121.026,436.551z"/>
					<polygon style="fill:#FFFFFF;" points="127.732,447.769 127.731,447.769 127.731,447.769 127.732,447.769 					"/>
					<polygon style="fill:#FFFFFF;" points="127.732,447.769 127.732,447.769 127.732,447.769 					"/>
					<path style="opacity:0.5;fill:#0D3F64;" d="M110.856,436.514c-0.038,0.049-0.07,0.087-0.109,0.138l0,0
						C110.786,436.601,110.818,436.563,110.856,436.514L110.856,436.514z"/>
					<path style="opacity:0.5;fill:#0D3F64;" d="M114.543,435.542l0.001-0.002c-0.064-0.048-0.128-0.095-0.188-0.146l0,0
						C114.416,435.445,114.479,435.494,114.543,435.542z"/>
					<path style="fill:#FCC1B1;" d="M114.612,435.592c-0.016-0.011-0.031-0.025-0.047-0.036c-0.007-0.005-0.015-0.009-0.022-0.014
						l0.001-0.002l0,0l-0.001,0.002C114.566,435.559,114.588,435.576,114.612,435.592z"/>
					<path style="opacity:0.5;fill:#0D3F64;" d="M114.612,435.592c-0.016-0.011-0.031-0.025-0.047-0.036
						c-0.007-0.005-0.015-0.009-0.022-0.014l0.001-0.002l0,0l-0.001,0.002C114.566,435.559,114.588,435.576,114.612,435.592z"/>
					<path style="fill:#FCC1B1;" d="M114.926,435.772L114.926,435.772c-0.016-0.007-0.03-0.018-0.046-0.026
						c-0.008-0.004-0.017-0.005-0.024-0.009C114.879,435.749,114.902,435.761,114.926,435.772z"/>
					<path style="opacity:0.5;fill:#0D3F64;" d="M114.926,435.772L114.926,435.772c-0.016-0.007-0.03-0.018-0.046-0.026
						c-0.008-0.004-0.017-0.005-0.024-0.009C114.879,435.749,114.902,435.761,114.926,435.772z"/>
					<path style="fill:#FCC1B1;" d="M114.805,435.709c-0.023-0.013-0.044-0.029-0.067-0.043c-0.036-0.021-0.076-0.038-0.11-0.062
						C114.684,435.643,114.744,435.676,114.805,435.709z"/>
					<path style="opacity:0.5;fill:#0D3F64;" d="M114.805,435.709c-0.023-0.013-0.044-0.029-0.067-0.043
						c-0.036-0.021-0.076-0.038-0.11-0.062C114.684,435.643,114.744,435.676,114.805,435.709z"/>
					<path style="fill:#0D3F64;" d="M113.1,437.047c0.444-0.183,0.828-0.471,1.203-0.774l0.239-0.73
						c-0.064-0.048-0.127-0.097-0.187-0.148c-0.514,0.538-1.183,0.929-1.908,1.099c-0.521,0.122-1.066,0.121-1.592,0.022
						c-0.038,0.049-0.07,0.086-0.109,0.138c-0.052,0.069-0.09,0.129-0.138,0.196C111.359,437.277,112.298,437.376,113.1,437.047z"/>
					<path style="opacity:0.5;fill:#0D3F64;" d="M113.1,437.047c0.444-0.183,0.828-0.471,1.203-0.774l0.239-0.73
						c-0.064-0.048-0.127-0.097-0.187-0.148c-0.514,0.538-1.183,0.929-1.908,1.099c-0.521,0.122-1.066,0.121-1.592,0.022
						c-0.038,0.049-0.07,0.086-0.109,0.138c-0.052,0.069-0.09,0.129-0.138,0.196C111.359,437.277,112.298,437.376,113.1,437.047z"/>
					<path style="fill:#0D3F64;" d="M114.856,435.737c-0.018-0.009-0.034-0.019-0.051-0.028c-0.061-0.033-0.121-0.066-0.177-0.104
						c-0.006-0.004-0.011-0.008-0.016-0.012c-0.023-0.016-0.046-0.033-0.069-0.05l-0.239,0.73c0.207-0.167,0.412-0.337,0.623-0.5
						C114.902,435.761,114.879,435.749,114.856,435.737z"/>
					<path style="opacity:0.5;fill:#0D3F64;" d="M114.856,435.737c-0.018-0.009-0.034-0.019-0.051-0.028
						c-0.061-0.033-0.121-0.066-0.177-0.104c-0.006-0.004-0.011-0.008-0.016-0.012c-0.023-0.016-0.046-0.033-0.069-0.05l-0.239,0.73
						c0.207-0.167,0.412-0.337,0.623-0.5C114.902,435.761,114.879,435.749,114.856,435.737z"/>
					<path style="opacity:0.5;fill:#FCC1B1;" d="M121.946,434.724L121.946,434.724c-0.046,0.313-0.085,0.611-0.117,0.894
						C121.861,435.335,121.9,435.038,121.946,434.724z"/>
					<path style="opacity:0.5;fill:#FCC1B1;" d="M121.751,436.428c0.02-0.252,0.045-0.519,0.077-0.8
						C121.796,435.909,121.77,436.176,121.751,436.428C121.751,436.428,121.751,436.428,121.751,436.428z"/>
					<path style="opacity:0.5;fill:#FCC1B1;" d="M116.742,436.294c0.33,0.095,0.66,0.182,0.992,0.258
						C117.402,436.476,117.072,436.388,116.742,436.294z"/>
					<path style="opacity:0.5;fill:#FCC1B1;" d="M118.837,436.731c0.281,0.025,0.563,0.031,0.846,0.012
						C119.399,436.763,119.117,436.756,118.837,436.731z"/>
					<path style="opacity:0.5;fill:#FCC1B1;" d="M121.025,436.545c0-0.001,0-0.003-0.001-0.004
						c-0.189,0.034-0.376,0.066-0.563,0.098c0.073-0.012,0.144-0.02,0.218-0.033C120.795,436.585,120.91,436.566,121.025,436.545z"
						/>
					<path style="opacity:0.5;fill:#FCC1B1;" d="M120.68,436.606c0.116-0.021,0.23-0.034,0.346-0.055
						c0-0.002-0.001-0.004-0.001-0.006C120.91,436.566,120.795,436.585,120.68,436.606z"/>
					<polygon style="opacity:0.5;fill:#FCC1B1;" points="121.75,436.433 121.75,436.433 121.751,436.428 121.751,436.428 					"/>
					<path style="opacity:0.5;fill:#FCC1B1;" d="M121.749,436.434c0,0,0.001,0,0.001,0c0-0.002,0-0.003,0-0.005
						c-0.239,0.028-0.482,0.069-0.726,0.113c0,0.001,0,0.003,0.001,0.004C121.269,436.501,121.51,436.462,121.749,436.434z"/>
					<path style="opacity:0.5;fill:#FCC1B1;" d="M121.025,436.545c0,0.002,0.001,0.004,0.001,0.006
						c0.242-0.044,0.485-0.089,0.723-0.117C121.51,436.462,121.269,436.501,121.025,436.545z"/>
					<path style="opacity:0.5;fill:#FCC1B1;" d="M114.543,435.542c0.007,0.005,0.015,0.009,0.022,0.014
						c-0.007-0.005-0.014-0.011-0.021-0.016L114.543,435.542z"/>
					<path style="opacity:0.5;fill:#FCC1B1;" d="M114.856,435.737c0.008,0.004,0.017,0.005,0.024,0.009
						c-0.05-0.024-0.096-0.052-0.142-0.08c0.023,0.014,0.044,0.03,0.067,0.043C114.822,435.718,114.838,435.728,114.856,435.737z"/>
					<path style="opacity:0.5;fill:#FCC1B1;" d="M114.856,435.737c-0.018-0.009-0.034-0.019-0.051-0.028
						C114.822,435.718,114.838,435.728,114.856,435.737z"/>
					<path style="opacity:0.5;fill:#FCC1B1;" d="M123.144,429.47L123.144,429.47c0.109-0.368,0.224-0.743,0.349-1.133l0,0
						C123.368,428.727,123.253,429.102,123.144,429.47z"/>
					<path style="fill:#FCC1B1;" d="M123.438,428.339C123.438,428.339,123.438,428.339,123.438,428.339
						C123.437,428.339,123.437,428.339,123.438,428.339c-0.51-0.069-1.025-0.164-1.539-0.281c-0.019-0.004-0.038-0.006-0.057-0.01
						c-0.014-0.003-0.027-0.008-0.041-0.011c-0.401-0.093-0.8-0.21-1.198-0.33c-0.069-0.021-0.139-0.036-0.208-0.057
						c-0.531-0.166-1.053-0.355-1.564-0.565c-0.042-0.017-0.087-0.03-0.13-0.048c-0.278-0.117-0.539-0.254-0.808-0.383
						c-0.126-0.06-0.255-0.116-0.378-0.179c0,0,0,0,0,0l-2.972,9.067c0,0,0,0,0,0c0.007,0.005,0.014,0.011,0.021,0.016
						c0.055,0.04,0.114,0.075,0.173,0.11c0.047,0.028,0.093,0.056,0.142,0.08c0.094,0.046,0.191,0.087,0.299,0.113
						c0.522,0.126,1.042,0.285,1.562,0.434c0.33,0.095,0.66,0.182,0.992,0.258c0.366,0.084,0.734,0.147,1.103,0.18
						c0.281,0.025,0.563,0.031,0.847,0.012c0.038-0.003,0.076,0,0.114-0.004c0.216-0.02,0.441-0.062,0.665-0.101
						c0.187-0.032,0.374-0.064,0.563-0.098c0.244-0.044,0.487-0.085,0.726-0.113c0.019-0.252,0.046-0.519,0.077-0.8
						c0-0.003,0.001-0.007,0.001-0.01c0.032-0.284,0.071-0.581,0.117-0.895c0.21-1.43,0.582-3.175,1.198-5.254
						c0.109-0.368,0.224-0.743,0.349-1.133C123.474,428.335,123.457,428.341,123.438,428.339z"/>
					<rect x="123.493" y="428.337" style="opacity:0.5;fill:#FCC1B1;" width="0" height="0"/>
					<path style="opacity:0.5;fill:#FCC1B1;" d="M120.603,427.706c0.398,0.12,0.797,0.237,1.198,0.33
						c-0.398-0.092-0.793-0.209-1.188-0.328C120.61,427.707,120.606,427.707,120.603,427.706z"/>
					<path style="opacity:0.5;fill:#FCC1B1;" d="M121.842,428.047c0.019,0.004,0.038,0.006,0.057,0.01c0,0,0,0,0,0
						C121.88,428.053,121.861,428.052,121.842,428.047z"/>
					<path style="opacity:0.5;fill:#FCC1B1;" d="M118.831,427.083c0.511,0.21,1.033,0.399,1.564,0.565c0,0,0,0-0.001,0
						C119.864,427.482,119.342,427.293,118.831,427.083z"/>
					<path style="opacity:0.5;fill:#FCC1B1;" d="M118.702,427.035c-0.278-0.117-0.539-0.254-0.808-0.383
						C118.163,426.781,118.424,426.918,118.702,427.035z"/>
					<path style="opacity:0.5;fill:#FCC1B1;" d="M123.438,428.339c0.019,0.003,0.037-0.004,0.056-0.002l0,0
						C123.474,428.335,123.456,428.341,123.438,428.339C123.438,428.339,123.438,428.339,123.438,428.339z"/>
					<path style="opacity:0.5;fill:#0D3F64;" d="M127.756,362.344L127.756,362.344c0.973,0.995,1.226,2.493,0.641,3.763
						c-0.774,1.679-1.436,3.414-2.023,5.182c0.588-1.769,1.249-3.503,2.023-5.182C128.982,364.837,128.729,363.339,127.756,362.344z
						"/>
					<path style="opacity:0.5;fill:#0D3F64;" d="M117.236,426.341C117.236,426.341,117.236,426.341,117.236,426.341
						c0.09,0.048,0.188,0.086,0.279,0.132l0,0C117.425,426.427,117.326,426.388,117.236,426.341z"/>
					<path style="opacity:0.5;fill:#0D3F64;" d="M124.51,377.927c0.112-0.468,0.228-0.935,0.346-1.4
						C124.738,376.992,124.623,377.459,124.51,377.927z"/>
					<path style="opacity:0.5;fill:#0D3F64;" d="M124.746,427.551c0.185-0.523,0.371-1.027,0.557-1.541l0,0
						C125.118,426.524,124.931,427.028,124.746,427.551L124.746,427.551z"/>
					<polygon style="fill:#FCC1B1;" points="117.516,426.473 117.516,426.473 117.516,426.473 117.516,426.473 117.516,426.473 
											"/>
					<polygon style="opacity:0.5;fill:#0D3F64;" points="117.516,426.473 117.516,426.473 117.516,426.473 117.516,426.473 
						117.516,426.473 					"/>
					<path style="fill:#FCC1B1;" d="M122.38,428.146c0.353,0.07,0.707,0.146,1.057,0.193c0,0,0,0,0,0
						C123.087,428.292,122.733,428.216,122.38,428.146z"/>
					<path style="opacity:0.5;fill:#0D3F64;" d="M122.38,428.146c0.353,0.07,0.707,0.146,1.057,0.193c0,0,0,0,0,0
						C123.087,428.292,122.733,428.216,122.38,428.146z"/>
					<path style="fill:#082A45;" d="M131.418,362.464l-3.662-0.12c0.973,0.995,1.226,2.493,0.641,3.762
						c-0.774,1.68-1.436,3.414-2.023,5.182c-0.57,1.716-1.068,3.467-1.517,5.238c-0.118,0.466-0.233,0.932-0.346,1.4
						c-0.206,0.86-0.405,1.722-0.596,2.587c-0.365,1.66-0.707,3.328-1.048,4.993c-0.455,2.22-0.907,4.436-1.407,6.62
						c-0.083,0.364-0.151,0.712-0.227,1.068c-0.25,1.171-0.475,2.316-0.659,3.42c-0.15,0.897-0.275,1.768-0.39,2.63
						c-0.027,0.199-0.054,0.399-0.079,0.596c-0.103,0.804-0.195,1.598-0.277,2.379c-0.024,0.227-0.044,0.451-0.067,0.677
						c-0.055,0.553-0.106,1.101-0.155,1.645c-0.454,5.132-0.688,9.957-1.779,15.433c-0.023,0.116-0.047,0.232-0.071,0.348
						c-0.08,0.391-0.163,0.784-0.252,1.183c-0.056,0.253-0.119,0.51-0.179,0.766c-0.071,0.297-0.138,0.591-0.215,0.892
						c-0.145,0.576-0.3,1.159-0.468,1.754c-0.002,0.008-0.004,0.016-0.006,0.024c-0.156,0.551,0.097,1.13,0.602,1.399
						c0.09,0.048,0.188,0.086,0.279,0.132c0,0,0,0,0,0.001c0.907,0.462,1.881,0.859,2.878,1.175c0.072,0.023,0.146,0.038,0.219,0.06
						c0.426,0.13,0.855,0.251,1.285,0.349c0.161,0.036,0.32,0.056,0.481,0.088c0.353,0.07,0.707,0.146,1.057,0.193
						c0.016,0.002,0.031-0.001,0.046-0.001c0.017-0.035,0.024-0.044,0.01-0.001c0.548,0.048,1.068-0.262,1.253-0.785
						c0.185-0.523,0.371-1.027,0.557-1.541c5.668-15.664,11.643-26.936,19.665-42.032c2.382-4.482,5.207-12.589,6.869-17.637
						c0.343-1.04,0.527-2.113,0.566-3.186L131.418,362.464z"/>
					<path style="fill:#0C3C62;" d="M117.516,426.473C117.516,426.473,117.516,426.473,117.516,426.473
						c0.907,0.462,1.881,0.859,2.879,1.175c0.072,0.023,0.146,0.039,0.219,0.06c0.426,0.13,0.855,0.251,1.286,0.349
						c0.161,0.036,0.32,0.056,0.481,0.088c0.353,0.07,0.707,0.146,1.057,0.193c0.019,0.003,0.037-0.004,0.056-0.002"/>
					<path style="opacity:0.5;fill:#FCC1B1;" d="M117.516,426.473C117.516,426.473,117.516,426.473,117.516,426.473L117.516,426.473
						c0.123,0.063,0.252,0.119,0.378,0.179C117.768,426.592,117.639,426.536,117.516,426.473z"/>
					<path style="opacity:0.5;fill:#0D3F64;" d="M117.516,426.473C117.516,426.473,117.516,426.473,117.516,426.473L117.516,426.473
						c0.123,0.063,0.252,0.119,0.378,0.179C117.768,426.592,117.639,426.536,117.516,426.473z"/>
					<polygon style="opacity:0.5;fill:#FCC1B1;" points="123.437,428.339 123.437,428.339 123.437,428.339 					"/>
					<polygon style="opacity:0.5;fill:#0D3F64;" points="123.437,428.339 123.437,428.339 123.437,428.339 					"/>
					<path style="opacity:0.5;fill:#FCC1B1;" d="M121.842,428.047c-0.014-0.003-0.027-0.008-0.041-0.011
						C121.815,428.039,121.828,428.044,121.842,428.047z"/>
					<path style="opacity:0.5;fill:#0D3F64;" d="M121.842,428.047c-0.014-0.003-0.027-0.008-0.041-0.011
						C121.815,428.039,121.828,428.044,121.842,428.047z"/>
					<path style="opacity:0.5;fill:#FCC1B1;" d="M118.831,427.083c-0.042-0.017-0.087-0.03-0.13-0.048
						C118.744,427.053,118.789,427.066,118.831,427.083z"/>
					<path style="opacity:0.5;fill:#0D3F64;" d="M118.831,427.083c-0.042-0.017-0.087-0.03-0.13-0.048
						C118.744,427.053,118.789,427.066,118.831,427.083z"/>
					<rect x="123.493" y="428.337" style="opacity:0.5;fill:#FCC1B1;" width="0" height="0"/>
					<rect x="123.493" y="428.337" style="opacity:0.5;fill:#0D3F64;" width="0" height="0"/>
					<path style="opacity:0.5;fill:#FCC1B1;" d="M120.613,427.709c0.394,0.119,0.79,0.235,1.188,0.328
						c0.014,0.003,0.027,0.008,0.041,0.011c0.019,0.004,0.038,0.006,0.057,0.01C121.469,427.959,121.04,427.838,120.613,427.709z"/>
					<path style="opacity:0.5;fill:#0D3F64;" d="M120.613,427.709c0.394,0.119,0.79,0.235,1.188,0.328
						c0.014,0.003,0.027,0.008,0.041,0.011c0.019,0.004,0.038,0.006,0.057,0.01C121.469,427.959,121.04,427.838,120.613,427.709z"/>
					<path style="opacity:0.5;fill:#FCC1B1;" d="M118.702,427.035c0.042,0.017,0.087,0.03,0.13,0.048
						c0.51,0.21,1.033,0.399,1.563,0.565c-0.998-0.316-1.972-0.713-2.878-1.175c0.123,0.063,0.252,0.119,0.378,0.179
						C118.162,426.781,118.424,426.918,118.702,427.035z"/>
					<path style="opacity:0.5;fill:#0D3F64;" d="M118.702,427.035c0.042,0.017,0.087,0.03,0.13,0.048
						c0.51,0.21,1.033,0.399,1.563,0.565c-0.998-0.316-1.972-0.713-2.878-1.175c0.123,0.063,0.252,0.119,0.378,0.179
						C118.162,426.781,118.424,426.918,118.702,427.035z"/>
					<path style="opacity:0.5;fill:#FCC1B1;" d="M123.437,428.339c0.019,0.003,0.037-0.004,0.056-0.002l0,0
						C123.474,428.335,123.456,428.341,123.437,428.339L123.437,428.339z"/>
					<path style="opacity:0.5;fill:#0D3F64;" d="M123.437,428.339c0.019,0.003,0.037-0.004,0.056-0.002l0,0
						C123.474,428.335,123.456,428.341,123.437,428.339L123.437,428.339z"/>
					<path style="opacity:0.5;fill:#082A45;" d="M134.601,376.136c-0.308-1.426-1.474-2.516-2.921-2.7
						c-0.286-0.036-0.574-0.066-0.86-0.101l0,0c0.707-3.617,1.22-7.328,0.597-10.871l-3.662-0.12
						c0.973,0.995,1.226,2.493,0.641,3.762c-0.774,1.68-1.436,3.414-2.023,5.182c-0.164,0.495-0.311,0.998-0.463,1.497c0,0,0,0,0,0
						c0,0.001-0.001,0.003-0.001,0.004c-0.377,1.234-0.733,2.477-1.053,3.736c-0.118,0.466-0.233,0.932-0.346,1.4
						c-0.072,0.301-0.138,0.605-0.209,0.907l0,0c-0.131,0.56-0.263,1.118-0.387,1.681c-0.365,1.66-0.707,3.328-1.048,4.993
						c-0.455,2.22-0.907,4.436-1.407,6.62c-0.083,0.364-0.151,0.712-0.227,1.068c-0.25,1.171-0.475,2.316-0.659,3.42
						c-1.69,10.129-0.929,17.728-3.938,28.325c-0.156,0.551,0.097,1.13,0.602,1.399c0.09,0.048,0.188,0.086,0.28,0.132
						c0,0,0,0,0,0.001c0.907,0.462,1.881,0.859,2.878,1.175c0.072,0.023,0.146,0.039,0.219,0.06c0.426,0.13,0.855,0.251,1.285,0.349
						c0.161,0.036,0.32,0.056,0.481,0.088c0.353,0.07,0.707,0.146,1.057,0.193c0.019,0.003,0.037-0.004,0.056-0.002
						c0.548,0.048,1.067-0.262,1.253-0.785c0.185-0.523,0.371-1.027,0.557-1.541c-1.746-0.517-3.133-2.211-3.597-4.039
						c-0.57-2.242-0.096-4.602,0.378-6.867c2.367-11.297,4.733-22.594,7.1-33.891c1.282,1.03,2.408,2.283,3.304,3.653
						c2.098,3.208,3.183,6.956,4.239,10.641c0.26,0.905,0.519,1.811,0.779,2.716c0.986-1.939,2-3.899,3.052-5.907
						C138.095,387.038,135.803,381.695,134.601,376.136z"/>
				</g>
				<g>
					<path style="fill:#FCC1B1;" d="M162.178,430.258l4.868,14.299l7.657-4.017c0,0-3.274-2.454-6.263-11.777L162.178,430.258z"/>
					<path style="fill:#0C3C62;" d="M159.145,380.557c-0.809-5.13-3.486-13.497-5.232-18.648c-0.993-2.928-3.089-5.339-5.846-6.739
						c-6.608-3.355-19.395-9.533-27.522-11.428c-8.421-1.964-17.054-3.746-24.971-7.082c-5.813-2.449-12.236-3.073-18.437-1.916
						c-6.117,1.142-12.488,2.219-17.836,3.556c-1.007,5.204-1.046,10.653,0.399,15.753c1.445,5.1,4.44,9.832,8.747,12.923
						c3.986,2.86,8.89,4.206,13.771,4.701c4.881,0.495,9.802,0.193,14.707,0.051c11.606-0.335,23.237,0.24,34.755,1.706
						c1.447,0.184,2.613,1.274,2.921,2.7c1.916,8.86,6.598,17.17,10.334,25.546c5.354,12.001,11.604,17.789,16.239,29.801
						c0.211,0.546,0.774,0.864,1.352,0.773c2.155-0.338,4.399-1.114,6.301-2.181c0.512-0.287,0.762-0.888,0.586-1.448
						C164.043,411.558,161.961,398.402,159.145,380.557z"/>
					<g>
						<g>
							<path style="fill:#0D3F64;" d="M193.398,445.744c-0.798-1.042-2.107-1.575-3.4-1.796c-1.294-0.221-2.618-0.176-3.924-0.31
								c-3.686-0.378-7.199-2.244-9.576-5.087c-0.605-0.723-1.25-1.572-2.188-1.668c-1.384-0.142-2.265,1.365-3.294,2.301
								c-1.193,1.086-2.837,1.481-4.317,2.121c-1.48,0.64-3.137-1.474-3.137,3.374c0,4.849,2.377,4.093,2.377,4.093
								s3.049,0.079,4.583,0.086c4.871,0.022,9.74,0.145,14.608,0.303c2.307,0.075,5.025,0.585,7.304,0.257
								C193.202,449.419,194.54,447.236,193.398,445.744z"/>
							<path style="fill:#FFFFFF;" d="M193.63,448.147c-0.288,0.729-0.812,1.272-1.194,1.272c-2.28,0.327-4.998-0.182-7.304-0.257
								c-4.868-0.158-9.737-0.281-14.608-0.303c-1.534-0.007-4.583-0.086-4.583-0.086s-1.47,0.456-2.097-1.712L193.63,448.147z"/>
							<path style="fill:#FFFFFF;" d="M163.567,444.5c0.034-3.597,1.037-3.142,2.173-3.069c-0.089,0.756-0.396,1.487-0.884,2.072
								C164.504,443.924,164.059,444.258,163.567,444.5z"/>
							<path style="opacity:0.5;fill:#0D3F64;" d="M171.899,438.267c1.474,1.614,3.257,2.944,5.261,3.816
								c2.234,0.972,4.697,1.378,7.129,1.239c0.589,0.139,1.182,0.254,1.784,0.316c0.283,0.029,0.567,0.047,0.851,0.064
								c-0.701,0.263-1.452,0.419-2.197,0.5c-2.686,0.292-5.445-0.128-7.923-1.205c-2.117-0.921-3.998-2.341-5.517-4.08
								C171.493,438.71,171.695,438.487,171.899,438.267z"/>
							<path style="fill:#FFFFFF;" d="M177.16,442.083c-2.005-0.872-3.787-2.203-5.261-3.816c0.706-0.762,1.434-1.484,2.412-1.383
								c0.938,0.096,1.583,0.945,2.188,1.668c1.989,2.379,4.776,4.06,7.792,4.771c0,0,0,0-0.001,0
								C181.857,443.461,179.395,443.055,177.16,442.083z"/>
						</g>
						<path style="opacity:0.5;fill:#0D3F64;" d="M163.571,444.924c-0.002-0.084-0.008-0.157-0.008-0.245
							c0-0.065,0.003-0.116,0.004-0.18c0.492-0.242,0.937-0.576,1.288-0.997c0.488-0.585,0.795-1.316,0.884-2.072
							c0.23,0.015,0.465,0.014,0.699-0.041c-0.202,0.74-0.32,1.51-0.709,2.166C165.277,444.318,164.448,444.814,163.571,444.924z"/>
					</g>
					<path style="opacity:0.5;fill:#FCC1B1;" d="M171.017,439.184c0.479-0.436,0.928-0.992,1.409-1.452
						c-0.282-0.442-0.58-0.946-0.891-1.518c-0.703,0.974-1.605,1.803-2.647,2.399c-1.069,0.611-2.274,0.968-3.501,1.069l0.597,1.754
						c0.238-0.001,0.479-0.03,0.716-0.132C168.18,440.665,169.824,440.27,171.017,439.184z"/>
					<path style="opacity:0.5;fill:#FCC1B1;" d="M168.871,430.039c-0.017,0.01-0.027,0.026-0.045,0.036
						c-1.811,1.016-3.931,1.755-5.99,2.117l0.512,1.505c2.14-0.357,4.189-1.228,5.934-2.517
						C169.145,430.812,169.008,430.435,168.871,430.039z"/>
					<path style="opacity:0.5;fill:#0D3F64;" d="M168.92,427.024c-1.746,0.651-3.922,0.119-5.426-1.09
						c-1.845-1.483-2.91-3.704-3.915-5.848c-5.88-12.542-11.761-25.083-17.641-37.625c-2.237-4.77-4.666-9.772-9.027-12.727
						c-3.794-2.571-8.547-3.231-13.124-3.458c-8.488-0.422-16.997,0.401-25.489,0.068c-8.492-0.334-17.214-1.94-24.255-6.698
						c-6.562-4.435-11.351-12.073-10.986-19.9c-0.749,4.762-0.669,9.678,0.643,14.309c1.445,5.1,4.44,9.832,8.747,12.923
						c3.986,2.86,8.89,4.206,13.771,4.701c4.881,0.495,9.802,0.193,14.707,0.051c11.606-0.335,23.237,0.24,34.754,1.706
						c1.447,0.184,2.613,1.274,2.921,2.7c1.916,8.86,6.598,17.17,10.334,25.546c5.353,12.001,11.604,17.789,16.239,29.8
						c0.211,0.547,0.774,0.865,1.353,0.774c2.154-0.338,4.398-1.114,6.299-2.18c0.512-0.288,0.762-0.889,0.586-1.449
						C169.242,428.085,169.084,427.558,168.92,427.024z"/>
				</g>
				<g>
					<path style="fill:#026FD4;" d="M86.079,206.472c-3.138-3.364-8.535-7.101-17.03-7.101c-4.372,0-8.144,1.043-11.307,2.77
						c9.18-2.757,13.096,3.247,13.096,3.247s9.595-2.765,12.685,8.457v25.207l-10.896,5.204l1.789,2.114v5.204l15.287,2.795v-38.632
						C89.702,212.301,88.422,208.984,86.079,206.472z"/>
				</g>
				<path style="fill:#FDC6BF;" d="M65.377,240.524c0.134,6.521,0.962,12.936-2.14,16.972l22.79,10.718
					c-3.645-3.395-7.36-6.882-9.659-11.301c-2.299-4.419-2.948-10.027-0.373-14.291L65.377,240.524z"/>
				<g>
					<g>
						<g>
							<path style="fill:#026FD4;" d="M60.106,201.295c-1.611,0.253-3.132,0.913-4.467,1.852
								c-6.627,4.66-10.009,12.505-10.009,19.178v15.95c0,4.417,2.938,8.294,7.19,9.488l12.488,3.509v-38.055
								c0,0,6.18-1.464,5.529-8.131C70.838,205.087,67.598,200.12,60.106,201.295z"/>
						</g>
					</g>
				</g>
				<path style="fill:#D35783;" d="M88.868,334.682c-5.878-12.727-3.694-24.59,3.605-36.558c2.682-0.631,5.788-2.592,7.446-4.794
					c1.404-1.865,2.234-4.153,2.373-6.483c0.046-0.768-0.217-1.52-0.721-2.102c-7.464-8.621-15.54-17.937-24.959-24.252
					c-2.411-1.617-4.988-3.097-7.832-3.681c-2.844-0.584-6.017-0.158-8.243,1.706c-2.94,2.462-3.565,6.674-3.875,10.497
					c-1.87,23.078,0.389,46.268,2.645,69.311C69.753,338.343,78.421,334.665,88.868,334.682z"/>
				<g id="XMLID_1_">
					<path style="fill:#FFFFFF;" d="M68.229,278.576c1.508,1.145,3.597,1.535,5.378,0.945l0.89,1.126
						c-2.225,1.272-5.196,0.927-7.258-0.627c-2.117-1.599-3.261-4.287-3.288-6.94c-0.018-2.407,0.817-4.778,2.126-6.804
						c-0.1,0.772-0.064,1.581,0.1,2.353c-0.509,1.245-0.809,2.58-0.799,3.924C65.395,274.851,66.394,277.195,68.229,278.576z"/>
					<path style="fill:#FDC6BF;" d="M66.439,269.601c0.736,2.135,2.035,3.624,3.506,5.332l3.661,4.587
						c-1.78,0.591-3.87,0.2-5.378-0.945c-1.835-1.381-2.834-3.724-2.852-6.022c-0.009-1.344,0.291-2.68,0.799-3.924
						C66.24,268.965,66.33,269.283,66.439,269.601z"/>
					<path style="fill:#FDC6BF;" d="M151.045,316.117v4.669l-46.672-6.793c-2.08,0-4.042-0.945-5.332-2.562l-24.544-30.785
						l-0.89-1.126l-3.661-4.587c-1.472-1.708-2.771-3.198-3.506-5.332c-0.109-0.318-0.2-0.636-0.263-0.972
						c-0.163-0.772-0.2-1.58-0.1-2.353c0.145-1.135,0.59-2.207,1.399-3.016c1.562-1.562,4.097-1.771,6.195-1.09
						c0.79,0.254,1.517,0.591,2.198,0.972c1.889,1.072,3.47,2.616,4.732,4.378l23.59,32.947c1.09,1.517,2.743,2.516,4.578,2.78
						L151.045,316.117z"/>
				</g>
				<path style="fill:#FDC6BF;" d="M59.425,232.43c0.133,5.124,3.151,10.078,7.644,12.546c3.665,2.013,8.437,2.273,12.457,0.869
					c1.664-0.581,2.939-1.941,3.555-3.592c3.592-9.623,4.026-20.41,1.167-30.28c-1.539-5.314-8.733-7.787-14.175-6.787
					c-5.442,1.001-9.972,5.373-11.736,10.617C56.571,221.046,59.282,226.898,59.425,232.43z"/>
				<g>
					<path style="fill:#026FD4;" d="M57.741,202.141c-8.013,4.374-12.111,13.14-12.111,20.486v15.95c0,4.416,2.938,8.294,7.19,9.488
						l13.466,4.46l-0.978-39.006c0,0,6.18-1.464,5.529-8.131C70.838,205.388,66.921,199.383,57.741,202.141z"/>
				</g>
				<g>
					<g>
						<g>
							<g>
								<path style="fill:#FFFFFF;" d="M69.676,237.525c0,0,1.101,5.201,6.088,5.201c4.988,0,6.089-5.201,6.089-5.201H69.676z"/>
							</g>
						</g>
					</g>
				</g>
				<g>
					<path style="fill:#DB7170;" d="M81.422,231.598c0.909-0.113,1.586-0.787,1.728-1.542c0.177-0.773-0.256-1.453-0.757-2.206
						c-0.507-0.778-0.852-1.712-0.912-2.647c-0.08-0.935,0.101-1.883,0.518-2.688c-0.257,1.788,0.081,3.521,1.028,4.934
						c0.227,0.377,0.495,0.768,0.663,1.246c0.167,0.473,0.2,1.039,0.022,1.518C83.407,231.216,82.313,231.803,81.422,231.598z"/>
				</g>
				<path style="opacity:0.3;fill:#FDC6BF;" d="M75.764,242.725c4.988,0,6.089-5.201,6.089-5.201s-1.101,5.724-6.089,5.724
					c-4.987,0-6.088-5.724-6.088-5.724S70.777,242.725,75.764,242.725z"/>
				<path style="fill:#026FD4;" d="M86.573,222.9c0.824-4.599,0.328-9.527-1.968-13.596c-2.295-4.069-6.519-7.146-11.177-7.496
					c-1.412-0.106-2.894,0.048-4.108,0.777c-1.214,0.729-2.094,2.127-1.906,3.531c0.384,2.86,3.188,1.903,5.086,2.3
					c2.297,0.48,4.518,1.568,6.426,2.913C82.79,214.053,85.695,218.222,86.573,222.9z"/>
				<path style="opacity:0.5;fill:#FDC6BF;" d="M68.973,275.748l2.17,3.989c0.831,0.103,1.677,0.044,2.464-0.217l-3.661-4.587
					c-1.005-1.166-1.925-2.236-2.644-3.474c-0.001,0.003-0.001,0.006-0.002,0.009C67.791,272.927,68.133,274.333,68.973,275.748z"/>
				<path style="opacity:0.5;fill:#D35783;" d="M74.497,280.647l-0.89-1.127l-0.787-0.986l-2.072,0.476l0.396,0.728l16.698,27.87
					c0.799-2.187,1.79-4.361,2.949-6.525L74.497,280.647z"/>
				<path style="opacity:0.5;fill:#FDC6BF;" d="M150.397,320.692l-1.068-0.18l0.788-4.677l-1.71-0.521l-0.31,1.84
					c-0.145,0.861-0.976,1.429-1.831,1.253l-41.996-8.664c-1.663-0.343-3.181-1.188-4.349-2.421L73.748,279.7l0.748,0.947
					l24.544,30.785c1.29,1.617,3.252,2.562,5.332,2.562l45.686,6.65l-2.488-0.362L150.397,320.692z"/>
				<path style="opacity:0.5;fill:#0D3F64;" d="M116.57,345.16c12.969,3.786,24.634,11.61,37.178,16.329
					c-1.046-2.736-3.058-4.988-5.68-6.319c-6.608-3.355-19.396-9.533-27.522-11.428c-8.242-1.922-16.682-3.68-24.459-6.88
					c2.568,2.442,5.852,4.059,9.221,5.203C108.995,343.317,112.832,344.069,116.57,345.16z"/>
			</g>
			<g>
				<g>
					<path style="fill:#CCCCCC;" d="M155.787,305.815c-0.359,0.055-0.707-0.172-0.794-0.531l-0.464-1.898
						c-0.093-0.38,0.14-0.763,0.519-0.856c0.372-0.096,0.763,0.139,0.855,0.519l0.464,1.898c0.093,0.38-0.14,0.763-0.519,0.856
						C155.828,305.808,155.808,305.812,155.787,305.815z"/>
				</g>
				<g>
					<path style="fill:#FF7BAC;" d="M155.323,303.917c-0.359,0.055-0.706-0.172-0.794-0.531l-0.241-0.982
						c-0.093-0.38,0.139-0.763,0.519-0.856c0.383-0.096,0.762,0.139,0.856,0.519l0.241,0.982c0.093,0.38-0.139,0.763-0.519,0.856
						C155.364,303.91,155.343,303.914,155.323,303.917z"/>
				</g>
				<polygon style="fill:#FDC6BF;" points="160.061,325.731 161.222,327.606 161.365,325.389 				"/>
				<g>
					<path style="fill:#FFCC56;" d="M160.765,326.05c-0.359,0.055-0.706-0.172-0.794-0.531l-4.977-20.234
						c-0.093-0.38,0.14-0.763,0.519-0.856c0.373-0.09,0.762,0.139,0.855,0.519l4.977,20.234c0.093,0.38-0.14,0.763-0.519,0.856
						C160.805,326.042,160.785,326.047,160.765,326.05z"/>
				</g>
				<path style="fill:#47456A;" d="M161.251,327.162c-0.037-0.002-0.073-0.014-0.11-0.01c-0.059,0.006-0.113,0.031-0.168,0.052
					l0.249,0.402L161.251,327.162z"/>
			</g>
			<g>
				<g>
					<g>
						<g>
							<path style="fill:#FDC6BF;" d="M163.413,317.77l0.729-4.329c0.085-0.507-0.256-0.987-0.763-1.073l-8.892-1.499
								c-1.897-0.32-3.694,0.959-4.014,2.856l-1.144,6.787l8.271,1.394C160.348,322.369,162.95,320.517,163.413,317.77z"/>
						</g>
					</g>
				</g>
			</g>
			<path style="opacity:0.5;fill:#FDC6BF;" d="M163.388,312.369l-0.628-0.106l-0.649,3.854c-0.459,2.722-3.037,4.556-5.758,4.098
				l-6.779-1.142l-0.243,1.439l8.317,1.401c2.722,0.459,5.3-1.376,5.758-4.098l0.739-4.384
				C164.229,312.93,163.89,312.454,163.388,312.369z"/>
			<path style="fill:#FCC1B1;" d="M115.107,433.821c1.017,0.641,2.168,1.071,3.362,1.221c1.164,0.147,2.356,0.029,3.477-0.318
				c0.21-1.43,0.582-3.175,1.198-5.254c-2.12-0.018-4.232-0.543-6.112-1.521l0.484-1.477c0,0,0,0,0,0l-2.972,9.067l0,0
				L115.107,433.821z"/>
			<path style="opacity:0.5;fill:#FCC1B1;" d="M118.469,435.043c-1.194-0.15-2.345-0.58-3.362-1.221l-0.563,1.718
				c0.007,0.005,0.014,0.011,0.021,0.016c0.055,0.04,0.114,0.075,0.173,0.11c0.047,0.028,0.093,0.056,0.142,0.08
				c0.094,0.046,0.191,0.087,0.299,0.113c0.522,0.126,1.042,0.285,1.562,0.434c0.33,0.095,0.66,0.182,0.992,0.258
				c0.366,0.084,0.734,0.147,1.103,0.179c0.281,0.025,0.563,0.031,0.846,0.012c0.038-0.003,0.076,0,0.114-0.004
				c0.216-0.02,0.441-0.062,0.665-0.101c0.187-0.032,0.374-0.064,0.563-0.098c0.244-0.044,0.487-0.085,0.726-0.113
				c0.02-0.252,0.046-0.519,0.077-0.8c0-0.003,0.001-0.007,0.001-0.01c0.032-0.284,0.071-0.581,0.117-0.895
				C120.825,435.072,119.633,435.19,118.469,435.043z"/>
			<path style="opacity:0.5;fill:#FCC1B1;" d="M123.438,428.339C123.438,428.339,123.438,428.339,123.438,428.339
				C123.437,428.339,123.437,428.339,123.438,428.339c-0.51-0.069-1.025-0.164-1.539-0.281c-0.019-0.004-0.038-0.006-0.057-0.01
				c-0.014-0.003-0.027-0.008-0.041-0.011c-0.401-0.093-0.8-0.21-1.198-0.33c-0.069-0.021-0.139-0.035-0.208-0.057
				c-0.531-0.166-1.053-0.355-1.564-0.565c-0.042-0.017-0.087-0.03-0.13-0.048c-0.278-0.117-0.539-0.254-0.808-0.383
				c-0.126-0.06-0.255-0.116-0.378-0.179l-0.484,1.477c1.881,0.978,3.993,1.502,6.112,1.521c0.109-0.368,0.224-0.743,0.349-1.133
				C123.474,428.335,123.457,428.341,123.438,428.339z"/>
		</g>
		<path style="opacity:0.3;fill:#FDC6BF;" d="M617.418,191.725c-4.988,0-6.088-5.201-6.088-5.201s1.101,5.724,6.088,5.724
			s6.088-5.724,6.088-5.724S622.406,191.725,617.418,191.725z"/>
		<g>
			<rect x="253.872" y="77.571" style="opacity:0.2;fill:#688CCB;" width="248.48" height="165.594"/>
			<g>
				<g>
					<path style="fill:#47456A;" d="M499.947,81.622H250.053c-1.302,0-2.357-1.055-2.357-2.357V77.85
						c0-1.302,1.055-2.357,2.357-2.357h249.894c1.302,0,2.357,1.055,2.357,2.357v1.414
						C502.304,80.566,501.249,81.622,499.947,81.622z"/>
					<rect x="250.76" y="81.622" style="fill:#FFFFFF;" width="248.48" height="158.503"/>
				</g>
				<path style="opacity:0.2;fill:#688CCB;" d="M257.831,81.622h-7.071v158.503h248.48v-7.929H262.264
					c-2.448,0-4.433-1.984-4.433-4.432V81.622z"/>
				<g>
					<line style="fill:none;stroke:#47456A;stroke-miterlimit:10;" x1="257.143" y1="78.558" x2="257.143" y2="0"/>
					<line style="fill:none;stroke:#47456A;stroke-miterlimit:10;" x1="492.857" y1="78.558" x2="492.857" y2="0"/>
				</g>
			</g>
		</g>
		<g>
			<g>
				<g>
					<g>
						<path style="fill:#688CCB;" d="M181.272,98.286c0-17.471-14.163-31.635-31.635-31.635s-31.635,14.163-31.635,31.635H181.272z"
							/>
					</g>
					<path style="opacity:0.5;fill:#688CCB;" d="M125.525,83.421c3.105-5.743,7.503-10.772,12.747-14.659
						c-11.855,4.567-20.27,16.059-20.27,29.523h4.093C121.406,93.22,123.067,87.968,125.525,83.421z"/>
					<path style="opacity:0.7;fill:#FFFFFF;" d="M140.324,90.335c0.374-4.476,0.872-8.972,2.159-13.275
						c1.131-3.78,2.908-7.429,5.52-10.368c-0.935,0.048-1.856,0.143-2.768,0.27c-8.337,8.24-13.473,19.629-14.206,31.323h9.171
						C139.938,95.664,140.103,92.973,140.324,90.335z"/>
				</g>
				<g>
					<g>
						<path style="fill:#688CCB;" d="M406.635,98.286c0-17.471-14.164-31.635-31.635-31.635s-31.635,14.163-31.635,31.635H406.635z"
							/>
					</g>
					<path style="opacity:0.5;fill:#688CCB;" d="M350.888,83.421c3.105-5.743,7.503-10.772,12.747-14.659
						c-11.854,4.567-20.27,16.059-20.27,29.523h4.093C346.768,93.22,348.429,87.968,350.888,83.421z"/>
					<path style="opacity:0.7;fill:#FFFFFF;" d="M365.686,90.335c0.374-4.476,0.872-8.972,2.159-13.275
						c1.131-3.78,2.908-7.429,5.52-10.368c-0.935,0.048-1.856,0.143-2.768,0.27c-8.337,8.24-13.473,19.629-14.206,31.323h9.171
						C365.301,95.664,365.466,92.973,365.686,90.335z"/>
				</g>
				<g>
					<g>
						<path style="fill:#688CCB;" d="M631.997,98.286c0-17.471-14.163-31.635-31.635-31.635s-31.635,14.163-31.635,31.635H631.997z"
							/>
					</g>
					<path style="opacity:0.5;fill:#688CCB;" d="M576.25,83.421c3.105-5.743,7.503-10.772,12.747-14.659
						c-11.855,4.567-20.27,16.059-20.27,29.523h4.093C572.131,93.22,573.792,87.968,576.25,83.421z"/>
					<path style="opacity:0.7;fill:#FFFFFF;" d="M591.049,90.335c0.373-4.476,0.872-8.972,2.159-13.275
						c1.131-3.78,2.908-7.429,5.52-10.368c-0.935,0.048-1.856,0.143-2.768,0.27c-8.337,8.24-13.473,19.629-14.206,31.323h9.171
						C590.663,95.664,590.828,92.973,591.049,90.335z"/>
				</g>
			</g>
			<g>
				<path style="fill:#688CCB;" d="M148.845,66.671c0.264-0.007,0.527-0.02,0.793-0.02c1.011,0,2.01,0.052,2.997,0.145
					c0.11-3.991,0.163-17.615,0.059-66.796h-3.854C148.899,33.657,148.934,61.326,148.845,66.671z"/>
				<path style="fill:#688CCB;" d="M148.84,0h-2.143c0.035,19.819,0.061,37.546,0.059,49.845c0,0.195,0,0.397,0,0.59
					c0,0.379,0,0.739,0,1.107c0,0.436,0,0.874-0.001,1.295c0,0.139,0,0.274,0,0.412c-0.005,6.958-0.022,11.743-0.055,13.543
					c0.114-0.011,0.229-0.017,0.344-0.026l-0.228-0.076l0.228,0.076c0.596-0.048,1.196-0.08,1.801-0.095c0,0,0,0,0,0
					C148.934,61.326,148.899,33.657,148.84,0z"/>
				<path style="opacity:0.5;fill:#688CCB;" d="M148.84,0h-2.143c0.035,19.819,0.061,37.546,0.059,49.845c0,0.195,0,0.397,0,0.59
					c0,0.379,0,0.739,0,1.107c0,0.436,0,0.874-0.001,1.295c0,0.139,0,0.274,0,0.412c-0.005,6.958-0.022,11.743-0.055,13.543
					c0.114-0.011,0.229-0.017,0.344-0.026l-0.228-0.076l0.228,0.076c0.596-0.048,1.196-0.08,1.801-0.095c0,0,0,0,0,0
					C148.934,61.326,148.899,33.657,148.84,0z"/>
				<path style="fill:#688CCB;" d="M374.207,66.671c0.264-0.007,0.527-0.02,0.793-0.02c1.011,0,2.01,0.052,2.997,0.145
					c0.11-3.991,0.163-17.615,0.059-66.796h-3.854C374.262,33.657,374.296,61.326,374.207,66.671z"/>
				<path style="fill:#688CCB;" d="M374.202,0h-2.142c0.035,19.819,0.061,37.546,0.059,49.845c0,0.195,0,0.397,0,0.59
					c0,0.379,0,0.739,0,1.107c0,0.436,0,0.874-0.001,1.295c0,0.139,0,0.274,0,0.412c-0.005,6.958-0.022,11.743-0.055,13.543
					c0.114-0.011,0.229-0.017,0.344-0.026l-0.228-0.076l0.228,0.076c0.596-0.048,1.196-0.08,1.801-0.095c0,0,0,0,0,0
					C374.296,61.326,374.262,33.657,374.202,0z"/>
				<path style="opacity:0.5;fill:#688CCB;" d="M374.202,0h-2.142c0.035,19.819,0.061,37.546,0.059,49.845c0,0.195,0,0.397,0,0.59
					c0,0.379,0,0.739,0,1.107c0,0.436,0,0.874-0.001,1.295c0,0.139,0,0.274,0,0.412c-0.005,6.958-0.022,11.743-0.055,13.543
					c0.114-0.011,0.229-0.017,0.344-0.026l-0.228-0.076l0.228,0.076c0.596-0.048,1.196-0.08,1.801-0.095c0,0,0,0,0,0
					C374.296,61.326,374.262,33.657,374.202,0z"/>
				<path style="fill:#688CCB;" d="M599.565,0c0.06,33.657,0.094,61.326,0.005,66.671c0.264-0.007,0.527-0.02,0.793-0.02
					c1.011,0,2.01,0.052,2.997,0.145c0.11-3.991,0.163-17.615,0.059-66.796H599.565z"/>
				<path style="fill:#688CCB;" d="M599.565,0h-2.143c0.035,19.819,0.061,37.546,0.059,49.845c0,0.195,0,0.397,0,0.59
					c0,0.379,0,0.739,0,1.107c0,0.436,0,0.874-0.001,1.295c0,0.139,0,0.274,0,0.412c-0.005,6.958-0.022,11.743-0.055,13.543
					c0.114-0.011,0.229-0.017,0.344-0.026l-0.228-0.076l0.228,0.076c0.596-0.048,1.196-0.08,1.801-0.095c0,0,0,0,0,0
					C599.659,61.326,599.624,33.657,599.565,0z"/>
				<path style="opacity:0.5;fill:#688CCB;" d="M599.565,0h-2.143c0.035,19.819,0.061,37.546,0.059,49.845c0,0.195,0,0.397,0,0.59
					c0,0.379,0,0.739,0,1.107c0,0.436,0,0.874-0.001,1.295c0,0.139,0,0.274,0,0.412c-0.005,6.958-0.022,11.743-0.055,13.543
					c0.114-0.011,0.229-0.017,0.344-0.026l-0.228-0.076l0.228,0.076c0.596-0.048,1.196-0.08,1.801-0.095c0,0,0,0,0,0
					C599.659,61.326,599.624,33.657,599.565,0z"/>
			</g>
		</g>
		<g>
			<path style="fill:#6172AD;" d="M592.48,324.32h-35.714v3.286h33.688c1.119,0,2.027-0.907,2.027-2.027V324.32z"/>
			<g>
				<path style="fill:#ECF6FF;" d="M488.468,286.606l9.062,39.355c0.222,0.963,1.079,1.645,2.067,1.645h57.524l-9.673-41H488.468z"
					/>
			</g>
			<path style="fill:#A5B2DF;" d="M548.003,284.178h-56.402c-0.443,0-0.869,0.176-1.183,0.488l-1.95,1.94h58.98l9.673,41h2.216
				l-9.701-42.128C549.462,284.717,548.784,284.178,548.003,284.178z"/>
			<path style="fill:#A5B2DF;" d="M526.876,305.892c0,3.965-3.214,7.179-7.179,7.179c-3.965,0-7.179-3.214-7.179-7.179
				c0-3.965,3.214-7.178,7.179-7.178C523.662,298.713,526.876,301.927,526.876,305.892z"/>
		</g>
	</g>
</g>
</svg>
